<svg width="40" height="40" viewBox="0 0 40 40" fill="none" xmlns="http://www.w3.org/2000/svg">
<rect width="40" height="40" rx="6" fill="#5568FE"/>
<g clip-path="url(#clip0_100_617)">
<path d="M18.932 24.6245C18.6473 24.6317 18.3642 24.5809 18.0998 24.4753C17.8354 24.3697 17.5952 24.2114 17.3939 24.0101C17.1926 23.8087 17.0343 23.5686 16.9286 23.3042C16.823 23.0398 16.7723 22.7566 16.7795 22.472V17.552C16.7733 17.1075 16.9176 16.674 17.189 16.322C17.3446 16.1029 17.5428 15.9173 17.7716 15.7764C18.0004 15.6354 18.2553 15.5419 18.521 15.5015C19.0867 15.3931 19.6725 15.5029 20.1605 15.809L23.7485 18.269L24.3635 18.884C24.6695 19.372 24.7794 19.9578 24.671 20.5235C24.632 20.8022 24.5283 21.0678 24.3681 21.2992C24.2079 21.5305 23.9957 21.721 23.7485 21.8555L20.162 24.2195C19.8094 24.4893 19.3759 24.632 18.932 24.6245ZM18.932 17.45H18.83V22.37C18.8298 22.3834 18.8323 22.3968 18.8373 22.4093C18.8424 22.4217 18.8499 22.433 18.8594 22.4426C18.8689 22.4521 18.8802 22.4596 18.8927 22.4646C18.9052 22.4697 18.9185 22.4722 18.932 22.472L22.622 20.012C22.6481 19.9842 22.6627 19.9474 22.6627 19.9092C22.6627 19.8711 22.6481 19.8343 22.622 19.8065L18.932 17.4485V17.45Z" fill="white"/>
<path d="M27.08 32H12.92C12.2583 31.9935 11.6045 31.855 10.997 31.5926C10.3896 31.3301 9.84062 30.949 9.38237 30.4716C8.92412 29.9942 8.5658 29.4302 8.32842 28.8125C8.09104 28.1948 7.97937 27.5359 7.99997 26.8745V13.1255C7.97937 12.4641 8.09104 11.8052 8.32842 11.1875C8.5658 10.5698 8.92412 10.0058 9.38237 9.52836C9.84062 9.05097 10.3896 8.66988 10.997 8.40743C11.6045 8.14499 12.2583 8.00647 12.92 8H27.08C27.7417 8.00647 28.3954 8.14499 29.0029 8.40743C29.6104 8.66988 30.1593 9.05097 30.6176 9.52836C31.0758 10.0058 31.4341 10.5698 31.6715 11.1875C31.9089 11.8052 32.0206 12.4641 32 13.1255V26.876C32.0204 27.5373 31.9085 28.196 31.6711 28.8135C31.4336 29.431 31.0752 29.9949 30.617 30.4722C30.1588 30.9494 29.6099 31.3303 29.0025 31.5927C28.3952 31.8551 27.7415 31.9935 27.08 32ZM12.92 10.5005C12.5798 10.4994 12.2429 10.5673 11.9297 10.7001C11.6165 10.833 11.3335 11.028 11.0979 11.2735C10.8623 11.5189 10.679 11.8096 10.559 12.1279C10.4391 12.4462 10.3849 12.7856 10.4 13.1255V26.876C10.3849 27.2159 10.4391 27.5553 10.559 27.8736C10.679 28.1919 10.8623 28.4826 11.0979 28.728C11.3335 28.9735 11.6165 29.1685 11.9297 29.3014C12.2429 29.4342 12.5798 29.5021 12.92 29.501H27.08C27.4202 29.5021 27.7571 29.4342 28.0702 29.3014C28.3834 29.1685 28.6664 28.9735 28.902 28.728C29.1376 28.4826 29.3209 28.1919 29.4409 27.8736C29.5609 27.5553 29.615 27.2159 29.6 26.876V13.1255C29.615 12.7856 29.5609 12.4462 29.4409 12.1279C29.3209 11.8096 29.1376 11.5189 28.902 11.2735C28.6664 11.028 28.3834 10.833 28.0702 10.7001C27.7571 10.5673 27.4202 10.4994 27.08 10.5005H12.92Z" fill="white"/>
</g>
<defs>
<clipPath id="clip0_100_617">
<rect width="24" height="24" fill="white" transform="translate(8 8)"/>
</clipPath>
</defs>
</svg>
