<svg width="40" height="40" viewBox="0 0 40 40" fill="none" xmlns="http://www.w3.org/2000/svg">
<rect width="40" height="40" rx="6" fill="#5568FE"/>
<path d="M31.992 25.5578H30.3937V21.4145C30.4418 18.6074 29.3741 15.896 27.4251 13.8764C25.4762 11.8568 22.8056 10.6942 20.0003 10.6441C17.1951 10.6942 14.5245 11.8568 12.5755 13.8764C10.6266 15.896 9.55885 18.6074 9.60698 21.4145V25.5578H8.00866V21.4145C7.95274 18.1755 9.18452 15.0468 11.4332 12.7163C13.6819 10.3857 16.7634 9.04417 20.0003 8.98648C23.2372 9.04417 26.3188 10.3857 28.5675 12.7163C30.8162 15.0468 32.0479 18.1755 31.992 21.4145V25.5578Z" fill="white" stroke="white"/>
<path d="M12.9883 29.3273H12.005C10.8711 29.2463 9.81497 28.7205 9.06649 27.8644C8.318 27.0082 7.93771 25.8908 8.00834 24.7555V22.9282C7.93771 21.7928 8.318 20.6755 9.06649 19.8193C9.81497 18.9631 10.8711 18.4373 12.005 18.3564H12.9883C13.3917 18.3927 13.7652 18.5848 14.0293 18.892C14.2935 19.1993 14.4277 19.5974 14.4033 20.002V27.6816C14.4277 28.0862 14.2935 28.4844 14.0293 28.7916C13.7652 29.0989 13.3917 29.291 12.9883 29.3273ZM12.005 20.1854C11.3246 20.2338 10.6909 20.5492 10.2417 21.0629C9.79252 21.5765 9.56428 22.2469 9.60666 22.9282V24.7572C9.56428 25.4384 9.79252 26.1088 10.2417 26.6225C10.6909 27.1362 11.3246 27.4515 12.005 27.4999H12.805V20.1854H12.005ZM27.9933 29.3273H27.034C26.6257 29.2982 26.2455 29.109 25.976 28.8008C25.7065 28.4926 25.5695 28.0904 25.595 27.6816V20.002C25.5695 19.5933 25.7065 19.191 25.976 18.8828C26.2455 18.5746 26.6257 18.3854 27.034 18.3564H27.9933C29.1275 18.4369 30.1841 18.9625 30.9329 19.8187C31.6818 20.675 32.0623 21.7925 31.9917 22.9282V24.7572C32.0618 25.8925 31.6811 27.0097 30.9323 27.8655C30.1835 28.7214 29.1272 29.2467 27.9933 29.3273ZM27.195 27.4982H27.995C28.6754 27.4498 29.3092 27.1345 29.7583 26.6208C30.2075 26.1071 30.4357 25.4367 30.3934 24.7555V22.9282C30.4357 22.2469 30.2075 21.5765 29.7583 21.0629C29.3092 20.5492 28.6754 20.2338 27.995 20.1854H27.195V27.4982Z" fill="white" stroke="white"/>
<path d="M25.4938 32.9855H19.1982C19.0782 32.9855 18.9593 32.9618 18.8484 32.9158C18.7375 32.8698 18.6368 32.8023 18.552 32.7173C18.4672 32.6323 18.4 32.5314 18.3542 32.4203C18.3084 32.3093 18.2849 32.1903 18.2852 32.0701C18.2852 31.8278 18.3814 31.5954 18.5526 31.4241C18.7238 31.2527 18.9561 31.1565 19.1982 31.1565H25.5932C25.8354 31.1565 26.0676 31.0602 26.2389 30.8889C26.4101 30.7175 26.5063 30.4851 26.5063 30.2428V28.4138H28.3342V30.2428C28.3356 30.6915 28.227 31.1336 28.0179 31.5305C27.8089 31.9274 27.5057 32.2669 27.135 32.5193C26.6481 32.8382 26.0756 33.0008 25.4938 32.9855Z" fill="white" stroke="white"/>
</svg>
