<svg width="40" height="40" viewBox="0 0 40 40" fill="none" xmlns="http://www.w3.org/2000/svg">
<rect width="40" height="40" rx="6" fill="#5568FE"/>
<path d="M21.1816 31.8182H11.7271C9.718 31.8182 8.18164 30.2818 8.18164 28.2727V18.8182C8.18164 16.8091 9.718 15.2727 11.7271 15.2727H21.1816C23.1907 15.2727 24.7271 16.8091 24.7271 18.8182V19.2909L28.3907 17.4C29.5726 16.8091 30.9907 17.2818 31.5816 18.4636C31.6998 18.8182 31.818 19.1727 31.818 19.5273V27.5636C31.818 28.8636 30.7544 29.9273 29.4544 29.9273C29.0998 29.9273 28.7453 29.8091 28.3907 29.6909L24.7271 27.8V28.2727C24.7271 30.2818 23.1907 31.8182 21.1816 31.8182ZM11.7271 17.6363C11.018 17.6363 10.5453 18.1091 10.5453 18.8182V28.2727C10.5453 28.9818 11.018 29.4545 11.7271 29.4545H21.1816C21.8907 29.4545 22.3635 28.9818 22.3635 28.2727V25.9091V21.1818V18.8182C22.3635 18.1091 21.8907 17.6363 21.1816 17.6363H11.7271ZM24.7271 25.2L29.4544 27.5636V19.5273L24.7271 21.8909V25.2Z" fill="white"/>
<path d="M16.3366 13.6182C15.6275 13.6182 15.1548 13.1454 15.1548 12.4363V9.12725C15.1548 8.41816 15.6275 7.94543 16.3366 7.94543C17.0457 7.94543 17.5184 8.41816 17.5184 9.12725V12.4363C17.5184 13.1454 16.9275 13.6182 16.3366 13.6182Z" fill="white"/>
<path d="M20.2365 13.6182C19.882 13.6182 19.6456 13.5 19.4092 13.2637C18.9365 12.7909 18.9365 12.0818 19.4092 11.6091L21.7729 9.24548C22.2456 8.77275 22.9547 8.77275 23.4274 9.24548C23.9001 9.7182 23.9001 10.4273 23.4274 10.9L21.0638 13.2637C20.8274 13.5 20.5911 13.6182 20.2365 13.6182Z" fill="white"/>
<path d="M12.2 13.6182C11.8454 13.6182 11.6091 13.5 11.3727 13.2636L9.00907 10.9C8.65453 10.5455 8.65453 9.71819 9.00907 9.36364C9.4818 8.89091 10.1909 8.89091 10.6636 9.36364L13.0273 11.7273C13.5 12.2 13.5 12.9091 13.0273 13.3818C12.7909 13.5 12.5545 13.6182 12.2 13.6182Z" fill="white"/>
</svg>
