<svg width="12" height="7" viewBox="0 0 12 7" fill="none" xmlns="http://www.w3.org/2000/svg">
<path d="M8.49385 5.98553H2.19824C2.07819 5.98553 1.95931 5.96184 1.84842 5.91582C1.73753 5.86979 1.6368 5.80234 1.55199 5.71731C1.46718 5.63229 1.39996 5.53136 1.35417 5.42031C1.30838 5.30927 1.28493 5.19027 1.28516 5.07014V5.07014C1.28516 4.82782 1.38136 4.59543 1.55259 4.42408C1.72383 4.25274 1.95607 4.15648 2.19824 4.15648H8.59321C8.83537 4.15648 9.06761 4.06021 9.23885 3.88887C9.41009 3.71752 9.50629 3.48513 9.50629 3.24281V1.41376H11.3342V3.24281C11.3356 3.69146 11.227 4.13361 11.0179 4.5305C10.8089 4.92739 10.5057 5.2669 10.135 5.51927C9.64811 5.83818 9.07557 6.00085 8.49385 5.98553V5.98553Z" fill="white" stroke="white"/>
</svg>
