<?xml version="1.0" encoding="utf-8"?>
<!-- Generator: Adobe Illustrator 22.0.0, SVG Export Plug-In . SVG Version: 6.00 Build 0)  -->
<svg version="1.1" id="Layer_1" xmlns="http://www.w3.org/2000/svg" xmlns:xlink="http://www.w3.org/1999/xlink" x="0px" y="0px"
	 viewBox="0 0 446.7 113" style="enable-background:new 0 0 446.7 113;" xml:space="preserve">
<style type="text/css">
	.st0{fill:#FFFFFF;}
</style>
<g>
	<path class="st0" d="M80.5,73.8l-7.8-1.4c-1-0.2-1.9,0.6-1.9,1.6c0,0.8,0.5,1.4,1.3,1.6l7.8,1.4c0.8,0.2,1.8-0.3,1.9-1.3
		C81.9,74.8,81.3,74,80.5,73.8L80.5,73.8z M96.3,76.7l-7.8-1.4c-1-0.2-1.9,0.6-1.9,1.6c0,0.8,0.5,1.4,1.3,1.6l7.8,1.4
		c1,0.2,1.8-0.5,1.9-1.3C97.8,77.7,97.1,76.9,96.3,76.7L96.3,76.7z M64.8,70.9L57,69.5c-0.8-0.2-1.8,0.5-1.9,1.3
		c-0.2,1,0.5,1.8,1.3,1.9l7.8,1.4c1,0.2,1.8-0.5,1.9-1.3C66.2,72.1,65.6,71.1,64.8,70.9L64.8,70.9z M64.8,70.9"/>
	<path class="st0" d="M112.8,80.4L69.8,4.5c-0.5-1-1.9-1.1-2.7-0.2l-43.2,60c-0.3,0.3-0.3,0.8-0.3,1.3c0,0.3,0.8,2.9,11.7,42.4
		c0.2,0.8,1.1,1.4,2.1,1.1L112,82.6C113,82.3,113.3,81.2,112.8,80.4L112.8,80.4z M27.4,67.4l5.4,1c1,0.2,1.8-0.5,1.9-1.3
		c0.2-0.8-0.5-1.8-1.3-1.9l-5.4-1l35.8-50.1L47.4,67.9l-6.2-1.1c-0.8-0.2-1.8,0.5-1.9,1.3c0,0.2,0,0.2,0,0.3c0,0.8,0.5,1.4,1.3,1.6
		l5.8,1.1l-9.6,31L27.4,67.4z M68.8,9.3l39.7,69.6l-4.3-0.8c-1-0.2-1.9,0.5-1.9,1.6c0,0.8,0.5,1.4,1.3,1.6l1.8,0.3l-66.1,23.5
		C40.5,101.2,41.4,98.2,68.8,9.3L68.8,9.3z M68.8,9.3"/>
</g>
<g>
	<path class="st0" d="M145.4,74.7l-9.8-25.8h5.8l5.3,15c0.9,2.5,1.4,4.6,1.6,6.1h0.2c0.1-1.1,0.7-3.2,1.6-6.1l5.3-15h5.8l-9.8,25.8
		H145.4z"/>
	<path class="st0" d="M164.7,42.1c0-1,0.3-1.7,0.8-2.3c0.5-0.5,1.3-0.8,2.3-0.8c1,0,1.7,0.3,2.3,0.8c0.5,0.5,0.8,1.3,0.8,2.3
		c0,0.9-0.3,1.7-0.8,2.2c-0.5,0.5-1.3,0.8-2.3,0.8c-1,0-1.8-0.3-2.3-0.8C165,43.7,164.7,43,164.7,42.1z M170.5,74.7h-5.5V48.9h5.5
		V74.7z"/>
	<path class="st0" d="M187.1,75.2c-3.2,0-5.7-1.2-7.5-3.5c-1.8-2.3-2.7-5.6-2.7-9.8c0-4.2,0.9-7.5,2.7-9.9c1.8-2.4,4.4-3.5,7.6-3.5
		c3.4,0,6,1.3,7.7,3.8h0.3c-0.3-1.9-0.4-3.3-0.4-4.4v-9.4h5.5v36.3H196l-1-3.4h-0.3C193.1,73.9,190.5,75.2,187.1,75.2z M188.6,70.7
		c2.3,0,3.9-0.6,4.9-1.9s1.6-3.3,1.6-6.2v-0.8c0-3.3-0.5-5.6-1.6-6.9c-1.1-1.4-2.7-2.1-5-2.1c-1.9,0-3.4,0.8-4.5,2.3
		c-1,1.6-1.6,3.8-1.6,6.7c0,2.9,0.5,5,1.5,6.5C185,70,186.5,70.7,188.6,70.7z"/>
	<path class="st0" d="M219.4,75.2c-4,0-7.2-1.2-9.4-3.5s-3.4-5.6-3.4-9.7c0-4.2,1.1-7.5,3.2-9.9s5-3.6,8.7-3.6c3.4,0,6.1,1,8.1,3.1
		c2,2.1,3,4.9,3,8.5v3h-17.2c0.1,2.5,0.8,4.4,2,5.8c1.3,1.3,3.1,2,5.4,2c1.5,0,2.9-0.1,4.3-0.4c1.3-0.3,2.7-0.8,4.2-1.4v4.5
		c-1.3,0.6-2.7,1.1-4.1,1.4C222.8,75,221.2,75.2,219.4,75.2z M218.4,52.6c-1.7,0-3.1,0.6-4.2,1.7c-1.1,1.1-1.7,2.7-1.9,4.8h11.7
		c0-2.1-0.5-3.7-1.5-4.8C221.5,53.1,220.2,52.6,218.4,52.6z"/>
	<path class="st0" d="M258.6,61.8c0,4.2-1.1,7.5-3.2,9.9c-2.2,2.4-5.2,3.5-9,3.5c-2.4,0-4.5-0.5-6.4-1.6c-1.9-1.1-3.3-2.7-4.3-4.7
		c-1-2-1.5-4.4-1.5-7.1c0-4.2,1.1-7.5,3.2-9.8c2.1-2.3,5.2-3.5,9.1-3.5c3.7,0,6.7,1.2,8.9,3.6C257.5,54.4,258.6,57.7,258.6,61.8z
		 M239.8,61.8c0,6,2.2,8.9,6.6,8.9c4.4,0,6.5-3,6.5-8.9c0-5.9-2.2-8.8-6.6-8.8c-2.3,0-4,0.8-5,2.3C240.3,56.7,239.8,58.9,239.8,61.8
		z"/>
	<path class="st0" d="M282.2,67.4c0,2.5-0.9,4.5-2.8,5.8c-1.8,1.3-4.5,2-7.9,2c-3.4,0-6.2-0.5-8.3-1.6v-4.7c3,1.4,5.9,2.1,8.5,2.1
		c3.4,0,5.1-1,5.1-3.1c0-0.7-0.2-1.2-0.6-1.6c-0.4-0.4-1-0.9-1.8-1.4s-2-1-3.6-1.6c-3-1.2-5-2.3-6-3.5c-1.1-1.2-1.6-2.6-1.6-4.5
		c0-2.2,0.9-3.9,2.7-5.1c1.8-1.2,4.2-1.8,7.3-1.8c3,0,5.9,0.6,8.6,1.8l-1.8,4.1c-2.8-1.2-5.1-1.7-7-1.7c-2.9,0-4.3,0.8-4.3,2.5
		c0,0.8,0.4,1.5,1.1,2.1c0.8,0.6,2.4,1.3,4.9,2.3c2.1,0.8,3.7,1.6,4.6,2.3c1,0.7,1.7,1.5,2.1,2.4C282,65,282.2,66.1,282.2,67.4z"/>
	<path class="st0" d="M296.9,75.2c-3.2,0-5.7-1.2-7.5-3.5c-1.8-2.3-2.7-5.6-2.7-9.8c0-4.2,0.9-7.5,2.7-9.9c1.8-2.4,4.4-3.5,7.6-3.5
		c3.4,0,6,1.3,7.7,3.8h0.3c-0.3-1.9-0.4-3.3-0.4-4.4v-9.4h5.5v36.3h-4.3l-1-3.4h-0.3C302.9,73.9,300.3,75.2,296.9,75.2z M298.4,70.7
		c2.3,0,3.9-0.6,4.9-1.9c1-1.3,1.6-3.3,1.6-6.2v-0.8c0-3.3-0.5-5.6-1.6-6.9c-1.1-1.4-2.7-2.1-5-2.1c-1.9,0-3.4,0.8-4.5,2.3
		c-1,1.6-1.6,3.8-1.6,6.7c0,2.9,0.5,5,1.5,6.5C294.8,70,296.3,70.7,298.4,70.7z"/>
	<path class="st0" d="M323.3,61.1l3.1-3.9l7.8-8.3h6.3L330.1,60l11,14.7h-6.4l-8.3-11.3l-3,2.5v8.8H318V38.4h5.4v17.7l-0.3,5H323.3z
		"/>
	<path class="st0" d="M344.5,71.8c0-1.1,0.3-2,0.9-2.6c0.6-0.6,1.4-0.9,2.6-0.9c1.1,0,2,0.3,2.6,0.9c0.6,0.6,0.9,1.5,0.9,2.6
		c0,1.1-0.3,2-0.9,2.6c-0.6,0.6-1.5,1-2.6,1c-1.1,0-2-0.3-2.6-1C344.8,73.8,344.5,72.9,344.5,71.8z"/>
	<path class="st0" d="M363.9,74.7h-5.5V38.4h5.5V74.7z"/>
	<path class="st0" d="M371.4,42.1c0-1,0.3-1.7,0.8-2.3c0.5-0.5,1.3-0.8,2.3-0.8c1,0,1.7,0.3,2.3,0.8s0.8,1.3,0.8,2.3
		c0,0.9-0.3,1.7-0.8,2.2c-0.5,0.5-1.3,0.8-2.3,0.8c-1,0-1.8-0.3-2.3-0.8C371.7,43.7,371.4,43,371.4,42.1z M377.2,74.7h-5.5V48.9h5.5
		V74.7z"/>
	<path class="st0" d="M391,74.7l-9.8-25.8h5.8l5.3,15c0.9,2.5,1.4,4.6,1.6,6.1h0.2c0.1-1.1,0.7-3.2,1.6-6.1l5.3-15h5.8l-9.9,25.8
		H391z"/>
	<path class="st0" d="M421.9,75.2c-4,0-7.2-1.2-9.4-3.5c-2.3-2.3-3.4-5.6-3.4-9.7c0-4.2,1-7.5,3.2-9.9c2.1-2.4,5-3.6,8.7-3.6
		c3.4,0,6.1,1,8.1,3.1c2,2.1,3,4.9,3,8.5v3h-17.2c0.1,2.5,0.8,4.4,2,5.8c1.3,1.3,3.1,2,5.4,2c1.5,0,2.9-0.1,4.3-0.4
		c1.3-0.3,2.7-0.8,4.2-1.4v4.5c-1.3,0.6-2.7,1.1-4.1,1.4C425.3,75,423.7,75.2,421.9,75.2z M420.9,52.6c-1.7,0-3.1,0.6-4.2,1.7
		c-1.1,1.1-1.7,2.7-1.9,4.8h11.7c0-2.1-0.5-3.7-1.5-4.8C424.1,53.1,422.7,52.6,420.9,52.6z"/>
</g>
</svg>
