<svg width="32" height="32" viewBox="0 0 32 32" fill="none" xmlns="http://www.w3.org/2000/svg">
<g clip-path="url(#clip0_10_471)">
<path d="M27.7778 12.0015C26.6732 12.0015 25.7778 12.8969 25.7778 14.0015V22.0015C25.7778 23.106 26.6732 24.0015 27.7778 24.0015C28.8824 24.0015 29.7778 23.106 29.7778 22.0015V14.0015C29.7778 12.8969 28.8824 12.0015 27.7778 12.0015Z" fill="#3DDB85"/>
<path d="M3.77778 12.0015C2.67316 12.0015 1.77778 12.8969 1.77778 14.0015V22.0015C1.77778 23.106 2.67316 24.0015 3.77778 24.0015C4.88239 24.0015 5.77778 23.106 5.77778 22.0015V14.0015C5.77778 12.8969 4.88239 12.0015 3.77778 12.0015Z" fill="#3DDB85"/>
<path d="M21.0028 3.96382L22.6083 1.55476C22.9149 1.0948 22.7899 0.474683 22.331 0.168043C21.8681 -0.138597 21.2499 -0.0135974 20.9442 0.445387L19.3416 2.85005C18.2829 2.32319 17.1051 2.00007 15.8378 2.00007C14.5375 2.00007 13.3267 2.34138 12.2401 2.89399L10.6083 0.445391C10.3007 -0.0135927 9.68252 -0.138593 9.22158 0.168047C8.7626 0.474687 8.6376 1.09481 8.94424 1.55477L10.5838 4.01473C8.91457 5.48103 7.83778 7.60421 7.83778 9.99129V10.0001H23.7763C23.7763 7.57905 22.6908 5.43207 21.0028 3.96381L21.0028 3.96382ZM12.7763 8.00008C12.224 8.00008 11.7763 7.55233 11.7763 7.00008C11.7763 6.44771 12.224 6.00008 12.7763 6.00008C13.3285 6.00008 13.7763 6.44771 13.7763 7.00008C13.7763 7.55233 13.3285 8.00008 12.7763 8.00008ZM18.7763 8.00008C18.224 8.00008 17.7763 7.55233 17.7763 7.00008C17.7763 6.44771 18.224 6.00008 18.7763 6.00008C19.3285 6.00008 19.7763 6.44771 19.7763 7.00008C19.7763 7.55233 19.3285 8.00008 18.7763 8.00008Z" fill="#3DDB85"/>
<path d="M7.77774 23.9927C7.77579 24.5249 7.98477 25.0356 8.36075 25.4126C8.73575 25.7895 9.24551 26.0014 9.77774 26.0014V30.0014C9.77774 31.1059 10.6731 32.0014 11.7777 32.0014C12.8824 32.0014 13.7777 31.1059 13.7777 30.0014V26.0014H17.7777V30.0014C17.7777 31.1059 18.6731 32.0014 19.7777 32.0014C20.8824 32.0014 21.7777 31.1059 21.7777 30.0014V26.0014C22.8793 26.0014 23.7729 25.1118 23.7777 24.0102V12.0015H7.83048L7.77774 23.9927L7.77774 23.9927Z" fill="#3DDB85"/>
</g>
<defs>
<clipPath id="clip0_10_471">
<rect width="32" height="32" fill="white"/>
</clipPath>
</defs>
</svg>
