<svg width="80" height="80" viewBox="0 0 80 80" fill="none" xmlns="http://www.w3.org/2000/svg">
<rect width="80" height="80" rx="40" fill="#1E1E1E"/>
<mask id="mask0_147_237" style="mask-type:alpha" maskUnits="userSpaceOnUse" x="16" y="16" width="48" height="48">
<rect x="16" y="16" width="48" height="48" fill="#C4C4C4"/>
</mask>
<g mask="url(#mask0_147_237)">
<path d="M56.4856 23.8751C56.4856 23.3228 56.0379 22.8751 55.4856 22.8751H23.9856C23.4333 22.8751 22.9856 23.3228 22.9856 23.8751V45.1677C22.9856 45.323 22.9495 45.4761 22.8801 45.615L18.2236 54.9278C17.8912 55.5928 18.3747 56.3751 19.118 56.3751H60.3532C61.0966 56.3751 61.5801 55.5928 61.2476 54.9278L56.5912 45.615C56.5218 45.4761 56.4856 45.323 56.4856 45.1677V23.8751ZM43.9231 51.1876C43.9231 51.7398 43.4754 52.1876 42.9231 52.1876H36.5481C35.9958 52.1876 35.5481 51.7398 35.5481 51.1876V51.0938C35.5481 50.5415 35.9958 50.0938 36.5481 50.0938H42.9231C43.4754 50.0938 43.9231 50.5415 43.9231 51.0938V51.1876ZM52.2981 42.8126C52.2981 43.3648 51.8504 43.8126 51.2981 43.8126H48.616C48.1586 43.8126 47.7655 43.4998 47.6116 43.0691C47.1751 41.8476 46.4567 40.7471 45.5166 39.8565C45.1118 39.4731 45.0234 38.8455 45.2847 38.3529C45.6705 37.6254 45.9111 36.8262 45.9891 35.9999C46.099 34.8356 45.8816 33.6637 45.3615 32.6163C44.8414 31.5689 44.0392 30.6874 43.0453 30.0712C42.0513 29.455 40.9051 29.1286 39.7356 29.1286C38.5662 29.1286 37.4199 29.455 36.426 30.0712C35.432 30.6874 34.6298 31.5689 34.1097 32.6163C33.5896 33.6637 33.3723 34.8356 33.4821 35.9999C33.5601 36.8262 33.8007 37.6254 34.1865 38.3529C34.4478 38.8455 34.3595 39.4731 33.9546 39.8565C33.0145 40.7471 32.2962 41.8476 31.8596 43.0691C31.7057 43.4998 31.3126 43.8126 30.8553 43.8126H28.1731C27.6208 43.8126 27.1731 43.3648 27.1731 42.8126V28.0626C27.1731 27.5103 27.6208 27.0626 28.1731 27.0626H51.2981C51.8504 27.0626 52.2981 27.5103 52.2981 28.0626V42.8126Z" fill="url(#paint0_linear_147_237)"/>
</g>
<defs>
<linearGradient id="paint0_linear_147_237" x1="25.5" y1="23" x2="62" y2="61.5" gradientUnits="userSpaceOnUse">
<stop stop-color="white"/>
<stop offset="1" stop-color="white" stop-opacity="0"/>
</linearGradient>
</defs>
</svg>
