<svg width="80" height="80" viewBox="0 0 80 80" fill="none" xmlns="http://www.w3.org/2000/svg">
<rect width="80" height="80" rx="40" fill="#1E1E1E"/>
<mask id="mask0_147_241" style="mask-type:alpha" maskUnits="userSpaceOnUse" x="19" y="20" width="42" height="42">
<rect x="19" y="20" width="42" height="42" fill="#C4C4C4"/>
</mask>
<g mask="url(#mask0_147_241)">
<path d="M46.9278 23.5001H34.007C32.7509 23.5001 31.7339 24.5511 31.7339 25.8493C31.7339 26.4675 31.9732 27.0857 32.3919 27.5185C32.8107 27.9512 33.4089 28.1985 34.007 28.1985H34.4258V39.8826L31.375 43.6537C31.2554 43.8391 31.1956 44.0864 31.3152 44.3337C31.4348 44.5191 31.6143 44.7046 31.8536 44.7046H49.0214C49.2009 44.7046 49.3205 44.6428 49.4402 44.5191C49.5 44.4573 49.5 44.3955 49.5598 44.3337C49.6794 44.0864 49.6196 43.8391 49.5 43.6537L46.5091 39.9444V28.2603H46.9278C47.5858 28.2603 48.1241 28.013 48.5429 27.5803C48.9616 27.1475 49.2009 26.5912 49.2009 25.9111C49.2009 24.6129 48.184 23.5001 46.9278 23.5001ZM39.8692 57.1306C39.929 57.3778 40.1683 57.5633 40.4674 57.6251C40.6469 57.6251 40.7665 57.5633 40.8861 57.4397C40.946 57.3778 41.0058 57.2542 41.0656 57.1306L43.8771 45.941H37.1176L39.8692 57.1306Z" fill="url(#paint0_linear_147_241)"/>
</g>
<defs>
<linearGradient id="paint0_linear_147_241" x1="31" y1="24" x2="50" y2="64.5" gradientUnits="userSpaceOnUse">
<stop stop-color="white"/>
<stop offset="1" stop-color="white" stop-opacity="0"/>
</linearGradient>
</defs>
</svg>
