<svg width="80" height="80" viewBox="0 0 80 80" fill="none" xmlns="http://www.w3.org/2000/svg">
<rect width="80" height="80" rx="40" fill="#1E1E1E"/>
<mask id="mask0_147_240" style="mask-type:alpha" maskUnits="userSpaceOnUse" x="16" y="16" width="48" height="48">
<rect x="16" y="16" width="48" height="48" fill="#C4C4C4"/>
</mask>
<g mask="url(#mask0_147_240)">
<path fill-rule="evenodd" clip-rule="evenodd" d="M22.4729 55.75H57.5271C59.0235 55.75 60.25 54.5249 60.25 53.0303L60.25 32.75H19.75V30.75H60.25L60.25 27.7197C60.25 26.2251 59.0235 25 57.5271 25H22.4729C20.9765 25 19.75 26.2251 19.75 27.7197V53.0303C19.75 54.5249 20.9765 55.75 22.4729 55.75ZM25 28.375C25 28.9963 24.4963 29.5 23.875 29.5C23.2537 29.5 22.75 28.9963 22.75 28.375C22.75 27.7537 23.2537 27.25 23.875 27.25C24.4963 27.25 25 27.7537 25 28.375ZM28.75 28.375C28.75 28.9964 28.2463 29.5 27.625 29.5C27.0037 29.5 26.5 28.9964 26.5 28.375C26.5 27.7537 27.0037 27.25 27.625 27.25C28.2463 27.25 28.75 27.7537 28.75 28.375ZM31.375 29.5C31.9963 29.5 32.5 28.9964 32.5 28.375C32.5 27.7537 31.9963 27.25 31.375 27.25C30.7537 27.25 30.25 27.7537 30.25 28.375C30.25 28.9964 30.7537 29.5 31.375 29.5ZM46.2087 42.5181L42.1418 46.5851C42.0031 46.7237 41.772 46.7699 41.5872 46.6775C41.4023 46.585 41.2637 46.4002 41.2637 46.2153V44.7826C38.537 44.9675 36.2262 46.8161 35.3943 49.4042C35.3019 49.6815 35.0246 49.8201 34.7473 49.7277C34.6087 49.6815 34.47 49.5428 34.4238 49.4042C34.1927 48.6185 34.0541 47.8329 34.0541 47.001C34.0541 42.934 37.243 39.5603 41.3099 39.2368V38.0352C41.3099 37.8041 41.4485 37.6193 41.6334 37.5731C41.8183 37.4806 42.0493 37.5268 42.188 37.6655L46.2549 41.7324C46.3474 41.8249 46.3936 41.9635 46.3936 42.1022C46.3936 42.287 46.3474 42.4257 46.2087 42.5181Z" fill="url(#paint0_linear_147_240)"/>
</g>
<defs>
<linearGradient id="paint0_linear_147_240" x1="20" y1="25" x2="68.5" y2="67" gradientUnits="userSpaceOnUse">
<stop stop-color="white"/>
<stop offset="1" stop-color="white" stop-opacity="0"/>
</linearGradient>
</defs>
</svg>
