<svg width="80" height="80" viewBox="0 0 80 80" fill="none" xmlns="http://www.w3.org/2000/svg">
<rect width="80" height="80" rx="40" fill="#1E1E1E"/>
<mask id="mask0_147_244" style="mask-type:alpha" maskUnits="userSpaceOnUse" x="16" y="16" width="48" height="48">
<rect x="16" y="16" width="48" height="48" fill="#C4C4C4"/>
</mask>
<g mask="url(#mask0_147_244)">
<path fill-rule="evenodd" clip-rule="evenodd" d="M56.9609 30.1451C57.6352 30.0358 58.3267 30.127 58.9495 30.4074C59.558 30.6488 60.0803 31.0667 60.4493 31.6074C60.8183 32.1481 61.017 32.7868 61.02 33.4414V47.2582C61.0187 47.9105 60.8229 48.5475 60.4578 49.0879C60.0926 49.6283 59.5746 50.0476 58.97 50.2922C58.5256 50.4938 58.0435 50.5986 57.5555 50.5997C56.6763 50.5958 55.8294 50.2673 55.1776 49.6772L50.7496 45.5773V48.5497C50.7496 50.1808 50.1017 51.745 48.9484 52.8984C47.795 54.0517 46.2308 54.6996 44.5997 54.6996H26.1499C24.5189 54.6996 22.9546 54.0517 21.8013 52.8984C20.6479 51.745 20 50.1808 20 48.5497V32.1499C20 30.5189 20.6479 28.9546 21.8013 27.8013C22.9546 26.6479 24.5189 26 26.1499 26H44.5997C46.2308 26 47.795 26.6479 48.9484 27.8013C50.1017 28.9546 50.7496 30.5189 50.7496 32.1499V35.1224L55.1571 31.0224C55.6594 30.5595 56.2866 30.2545 56.9609 30.1451ZM29.026 40.6605C28.85 40.7228 28.6355 40.754 28.3825 40.754H27.6345V38.378H28.3825C28.8628 38.378 29.2167 38.477 29.444 38.675C29.675 38.873 29.7905 39.148 29.7905 39.5C29.7905 39.676 29.7648 39.841 29.7135 39.995C29.6622 40.1453 29.5797 40.2773 29.466 40.391C29.3523 40.5047 29.2057 40.5945 29.026 40.6605ZM30.6485 45H32.3315L30.6265 42.2115C30.5422 42.0832 30.4468 41.9732 30.3405 41.8815C30.2342 41.7862 30.1205 41.7073 29.9995 41.645C30.2598 41.546 30.489 41.4195 30.687 41.2655C30.8887 41.1115 31.0573 40.9373 31.193 40.743C31.3287 40.545 31.4313 40.3305 31.501 40.0995C31.5707 39.8685 31.6055 39.6228 31.6055 39.3625C31.6055 39.0215 31.5468 38.7062 31.4295 38.4165C31.3122 38.1268 31.1233 37.8757 30.863 37.663C30.6063 37.4503 30.2727 37.2853 29.862 37.168C29.455 37.047 28.9618 36.9865 28.3825 36.9865H25.7755V45H27.6345V42.0355H28.1075C28.2505 42.0355 28.3605 42.0593 28.4375 42.107C28.5145 42.151 28.5842 42.2225 28.6465 42.3215L29.9775 44.648C30.1132 44.8827 30.3368 45 30.6485 45ZM34.875 40.2865V38.4165H38.164V36.9865H33.005V45H38.164V43.57H34.875V41.6615H37.394V40.2865H34.875ZM44.6825 42.954C44.6385 42.9357 44.5945 42.9265 44.5505 42.9265C44.4955 42.9265 44.4424 42.9393 44.391 42.965C44.3397 42.987 44.292 43.0163 44.248 43.053C44.138 43.152 44.0299 43.2345 43.9235 43.3005C43.8172 43.3628 43.7035 43.4142 43.5825 43.4545C43.4615 43.4912 43.3314 43.5187 43.192 43.537C43.0527 43.5517 42.8987 43.559 42.73 43.559C42.4367 43.559 42.1617 43.5022 41.905 43.3885C41.6484 43.2748 41.4229 43.1098 41.2285 42.8935C41.0379 42.6735 40.8857 42.404 40.772 42.085C40.662 41.766 40.607 41.4012 40.607 40.9905C40.607 40.5835 40.6565 40.2223 40.7555 39.907C40.8582 39.588 41.0012 39.3203 41.1845 39.104C41.3715 38.884 41.5915 38.7172 41.8445 38.6035C42.1012 38.4898 42.3835 38.433 42.6915 38.433C42.8859 38.433 43.0545 38.4477 43.1975 38.477C43.3442 38.5063 43.4707 38.543 43.577 38.587C43.687 38.6273 43.7805 38.6732 43.8575 38.7245C43.9382 38.7722 44.0115 38.818 44.0775 38.862C44.1435 38.9023 44.2059 38.9372 44.2645 38.9665C44.3232 38.9958 44.3855 39.0105 44.4515 39.0105C44.5505 39.0105 44.6275 38.9903 44.6825 38.95C44.7375 38.906 44.7852 38.8583 44.8255 38.807L45.4525 37.9655C45.3022 37.8115 45.1299 37.6685 44.9355 37.5365C44.7412 37.4045 44.5285 37.2927 44.2975 37.201C44.0665 37.1057 43.8172 37.0323 43.5495 36.981C43.2855 36.926 43.0032 36.8985 42.7025 36.8985C42.1122 36.8985 41.5714 36.9993 41.08 37.201C40.5887 37.4027 40.167 37.685 39.815 38.048C39.463 38.411 39.1899 38.8437 38.9955 39.346C38.8012 39.8447 38.704 40.3928 38.704 40.9905C38.704 41.5772 38.7939 42.1217 38.9735 42.624C39.1532 43.1227 39.4099 43.5553 39.7435 43.922C40.0809 44.285 40.4897 44.571 40.97 44.78C41.454 44.9853 42.0004 45.088 42.609 45.088C43.2727 45.088 43.8465 44.9817 44.3305 44.769C44.8182 44.5527 45.2234 44.2337 45.546 43.812L44.809 43.0365C44.7687 42.9962 44.7265 42.9687 44.6825 42.954Z" fill="url(#paint0_linear_147_244)"/>
</g>
<defs>
<linearGradient id="paint0_linear_147_244" x1="22.5" y1="26" x2="66" y2="58" gradientUnits="userSpaceOnUse">
<stop stop-color="white"/>
<stop offset="1" stop-color="white" stop-opacity="0"/>
</linearGradient>
</defs>
</svg>
