<svg width="80" height="80" viewBox="0 0 80 80" fill="none" xmlns="http://www.w3.org/2000/svg">
<rect width="80" height="80" rx="40" fill="#1E1E1E"/>
<mask id="mask0_147_242" style="mask-type:alpha" maskUnits="userSpaceOnUse" x="16" y="16" width="48" height="48">
<rect x="16" y="16" width="48" height="48" fill="#C4C4C4"/>
</mask>
<g mask="url(#mask0_147_242)">
<path d="M43.7785 51.5888H42.3912C42.2465 51.5894 42.1069 51.5357 41.9998 51.4383C41.8928 51.3409 41.8262 51.207 41.8132 51.0628L41.5415 47.9126C38.2548 47.3468 35.2738 45.6373 33.1256 43.0862L32.4493 51.0628C32.4363 51.207 32.3697 51.3409 32.2627 51.4383C32.1557 51.5357 32.016 51.5894 31.8713 51.5888H30.4841C30.0242 51.5888 29.5831 51.7715 29.2579 52.0967C28.9327 52.4219 28.75 52.863 28.75 53.3229V56.6465C28.7515 57.1443 28.9499 57.6212 29.3019 57.9732C29.6539 58.3251 30.1308 58.5235 30.6286 58.5251H43.6455C44.1413 58.5205 44.6152 58.3208 44.9647 57.9691C45.3142 57.6175 45.511 57.1423 45.5125 56.6465V53.3229C45.5125 52.863 45.3298 52.4219 45.0046 52.0967C44.6794 51.7715 44.2384 51.5888 43.7785 51.5888ZM52.3678 41.4273L36.455 25.5145C36.2899 25.3497 36.0933 25.22 35.877 25.133L35.6862 25.0752L35.5186 25.0347C35.4045 25.0112 35.2883 24.9995 35.1718 25H35.1082H35.0215C34.9151 25.0073 34.8101 25.0287 34.7094 25.0636C34.657 25.0702 34.6061 25.0859 34.5591 25.1098L34.3857 25.185C34.2243 25.273 34.078 25.3862 33.9522 25.5202L33.8134 25.6705C31.6512 28.3551 30.6354 31.7845 30.9869 35.2136C31.2698 38.0016 32.4409 40.625 34.3276 42.697C36.2144 44.769 38.717 46.18 41.4664 46.7219C41.8652 46.7971 42.2756 46.8607 42.686 46.9011C43.0964 46.9416 43.5762 46.9647 44.0155 46.9647C44.5643 46.9648 45.1126 46.93 45.657 46.8607C45.8882 46.8607 46.1137 46.7971 46.3449 46.7566C46.5761 46.7162 46.8015 46.6699 47.0269 46.6121L47.4489 46.5023C47.4678 46.5074 47.4878 46.5074 47.5067 46.5023L47.8246 46.3867L48.0153 46.3231L48.2234 46.2537C48.2646 46.2449 48.3052 46.2333 48.3448 46.2191C48.4373 46.2191 48.524 46.1439 48.6165 46.115L48.7841 46.0457C48.998 45.9647 49.2118 45.8722 49.4199 45.7798H49.4488L49.8419 45.5948L50.2291 45.3925C50.4315 45.2827 50.6338 45.1671 50.8072 45.0457L52.206 44.0746C52.4034 43.9163 52.5651 43.7181 52.6807 43.493C52.7962 43.2679 52.8629 43.021 52.8765 42.7683C52.8922 42.5214 52.855 42.274 52.7673 42.0427C52.6795 41.8114 52.5433 41.6016 52.3678 41.4273ZM45.7033 33.1327L48.9806 29.8785C49.3313 30.085 49.7297 30.1966 50.1367 30.2022C50.646 30.204 51.1416 30.0375 51.5466 29.7287C51.9517 29.4199 52.2434 28.986 52.3765 28.4944C52.5096 28.0028 52.4767 27.481 52.2828 27.01C52.089 26.5391 51.745 26.1453 51.3044 25.8899C50.8638 25.6344 50.3511 25.5316 49.8461 25.5974C49.341 25.6632 48.8719 25.894 48.5114 26.2538C48.1509 26.6136 47.9194 27.0824 47.8527 27.5873C47.786 28.0922 47.8878 28.6051 48.1425 29.0461L44.8825 32.3004L45.7033 33.1327Z" fill="url(#paint0_linear_147_242)"/>
</g>
<defs>
<linearGradient id="paint0_linear_147_242" x1="29" y1="25" x2="49.5" y2="66" gradientUnits="userSpaceOnUse">
<stop stop-color="white"/>
<stop offset="1" stop-color="white" stop-opacity="0"/>
</linearGradient>
</defs>
</svg>
