<svg width="80" height="80" viewBox="0 0 80 80" fill="none" xmlns="http://www.w3.org/2000/svg">
<rect width="80" height="80" rx="40" fill="#1E1E1E"/>
<mask id="mask0_147_243" style="mask-type:alpha" maskUnits="userSpaceOnUse" x="16" y="16" width="48" height="48">
<rect x="16" y="16" width="48" height="48" fill="#C4C4C4"/>
</mask>
<g mask="url(#mask0_147_243)">
<path d="M39.9991 22C44.767 22 49.3568 23.8899 52.7226 27.2737C56.1065 30.6594 57.9982 35.2293 57.9982 40.0171C57.9982 46.3168 54.6846 52.1665 49.2848 55.4243C43.8851 58.6821 37.1714 58.8621 31.5935 55.8923H31.5377C30.9995 55.6763 30.5658 55.2983 30.0618 55.0463C29.5056 54.8123 28.8739 54.7763 28.2997 54.9581C26.9659 55.4243 25.616 55.8023 24.2301 56.1263C23.5101 56.1443 23.2941 55.7123 23.2941 55.0103C23.6181 53.5884 24.0501 52.1827 24.5559 50.8165C24.7521 50.2226 24.6999 49.5926 24.3939 49.0328L24.0339 48.3327C22.7002 45.7948 22 42.9689 22 40.1089V39.9991C22 35.2293 23.8881 30.6396 27.2719 27.2737C30.6558 23.8899 35.2275 22 39.9991 22ZM48.2949 37.7132C47.0349 37.7132 45.9928 38.7392 45.9928 40.0171C45.9928 41.277 47.0349 42.321 48.2949 42.321C49.5728 42.321 50.5988 41.277 50.5988 40.0171C50.5988 38.7392 49.5728 37.7132 48.2949 37.7132ZM39.9991 37.7132C38.7212 37.7132 37.6934 38.7392 37.6934 40.0171C37.6934 41.277 38.7212 42.321 39.9991 42.321C41.277 42.321 42.3012 41.277 42.3012 40.0171C42.3012 38.7392 41.277 37.7132 39.9991 37.7132ZM31.6997 37.7132C30.4218 37.7132 29.3958 38.7392 29.3958 40.0171C29.3958 41.277 30.4218 42.321 31.6997 42.321C32.9596 42.321 34.0054 41.277 34.0054 40.0171C34.0054 38.7392 32.9596 37.7132 31.6997 37.7132Z" fill="url(#paint0_linear_147_243)"/>
</g>
<defs>
<linearGradient id="paint0_linear_147_243" x1="22" y1="22" x2="58" y2="63" gradientUnits="userSpaceOnUse">
<stop stop-color="white"/>
<stop offset="1" stop-color="white" stop-opacity="0"/>
</linearGradient>
</defs>
</svg>
