<svg width="80" height="80" viewBox="0 0 80 80" fill="none" xmlns="http://www.w3.org/2000/svg">
<rect width="80" height="80" rx="40" fill="#1E1E1E"/>
<mask id="mask0_147_239" style="mask-type:alpha" maskUnits="userSpaceOnUse" x="16" y="16" width="48" height="48">
<rect x="16" y="16" width="48" height="48" fill="#C4C4C4"/>
</mask>
<g mask="url(#mask0_147_239)">
<path fill-rule="evenodd" clip-rule="evenodd" d="M60.25 53.75C60.25 54.8546 59.3546 55.75 58.25 55.75H53.7907C53.7876 55.75 53.7844 55.75 53.7812 55.75L26.5 55.75L26.2187 55.75L21.75 55.75C20.6454 55.75 19.75 54.8546 19.75 53.75V26.25C19.75 25.1455 20.6454 24.25 21.75 24.25H26.2155C26.2166 24.25 26.2177 24.25 26.2187 24.25L53.5 24.25L58.25 24.25C59.3546 24.25 60.25 25.1454 60.25 26.25L60.25 53.75ZM29.194 32.4662C29.3199 32.7701 29.5043 33.0462 29.7369 33.2787L32.3435 35.8853L35.8853 32.3436L33.2787 29.7369C33.0461 29.5044 32.77 29.3199 32.4662 29.194C32.1623 29.0682 31.8367 29.0034 31.5078 29.0034C31.1789 29.0034 30.8532 29.0682 30.5494 29.194C30.2455 29.3199 29.9695 29.5044 29.7369 29.7369C29.5043 29.9695 29.3199 30.2456 29.194 30.5494C29.0682 30.8533 29.0034 31.1789 29.0034 31.5078C29.0034 31.8367 29.0682 32.1624 29.194 32.4662ZM34.4284 37.9702L44.5478 48.0896L49.8438 49.8438L48.0896 44.5478L37.9702 34.4285L34.4284 37.9702Z" fill="url(#paint0_linear_147_239)"/>
</g>
<defs>
<linearGradient id="paint0_linear_147_239" x1="20" y1="24" x2="60" y2="65" gradientUnits="userSpaceOnUse">
<stop stop-color="white"/>
<stop offset="1" stop-color="white" stop-opacity="0"/>
</linearGradient>
</defs>
</svg>
