<svg width="20" height="20" viewBox="0 0 20 20" fill="none" xmlns="http://www.w3.org/2000/svg">
<g clip-path="url(#clip0_48_670)">
<path d="M9.99876 0C4.47751 0 5.7706e-06 4.495 5.7706e-06 10.04C-0.00225 12.1444 0.656899 14.1964 1.8843 15.9058C3.11169 17.6152 4.84526 18.8957 6.84001 19.5662C7.34001 19.6588 7.52251 19.3487 7.52251 19.0825C7.52251 18.8438 7.51376 18.2125 7.50876 17.375C4.72751 17.9812 4.14001 16.0287 4.14001 16.0287C3.68626 14.8687 3.03001 14.56 3.03001 14.56C2.12126 13.9375 3.09751 13.95 3.09751 13.95C4.10126 14.0212 4.62876 14.985 4.62876 14.985C5.52126 16.5187 6.97001 16.0763 7.54001 15.8187C7.63001 15.17 7.88876 14.7275 8.17501 14.4763C5.95501 14.2225 3.62001 13.3612 3.62001 9.515C3.62001 8.41875 4.01001 7.5225 4.65001 6.82C4.54626 6.56625 4.20376 5.545 4.74751 4.16375C4.74751 4.16375 5.58751 3.89375 7.49751 5.1925C8.31344 4.96952 9.1554 4.85602 10.0013 4.855C10.8472 4.85668 11.6891 4.97059 12.505 5.19375C14.4138 3.895 15.2525 4.165 15.2525 4.165C15.7975 5.5475 15.455 6.5675 15.3525 6.82125C15.9938 7.52375 16.38 8.42 16.38 9.51625C16.38 13.3725 14.0425 14.2213 11.815 14.47C12.1738 14.78 12.4938 15.3925 12.4938 16.3288C12.4938 17.6712 12.4813 18.7537 12.4813 19.0825C12.4813 19.3512 12.6613 19.6637 13.1688 19.565C15.1616 18.8929 16.893 17.6119 18.1187 15.9029C19.3444 14.1939 20.0024 12.1431 20 10.04C20 4.495 15.5225 0 9.99876 0Z" fill="#161616"/>
</g>
<defs>
<clipPath id="clip0_48_670">
<rect width="20" height="20" fill="white"/>
</clipPath>
</defs>
</svg>
