<svg width="20" height="20" viewBox="0 0 20 20" fill="none" xmlns="http://www.w3.org/2000/svg">
<path d="M20 10.2222C20 9.39996 19.9319 8.79995 19.7846 8.17773H10.2041V11.8888H15.8276C15.7143 12.8111 15.1021 14.2 13.7415 15.1333L13.7224 15.2575L16.7516 17.5573L16.9615 17.5778C18.8889 15.8333 20 13.2666 20 10.2222Z" fill="#4285F4"/>
<path d="M10.2041 20C12.9592 20 15.2721 19.1111 16.9615 17.5778L13.7415 15.1333C12.8798 15.7222 11.7233 16.1333 10.2041 16.1333C7.50571 16.1333 5.21548 14.3889 4.39908 11.9778L4.27941 11.9877L1.12963 14.3766L1.08844 14.4889C2.76643 17.7555 6.21314 20 10.2041 20Z" fill="#34A853"/>
<path d="M4.39905 11.9778C4.18363 11.3556 4.05896 10.6889 4.05896 10C4.05896 9.31106 4.18363 8.64442 4.38771 8.0222L4.38201 7.88969L1.19275 5.4624L1.08841 5.51104C0.396829 6.86662 0 8.38888 0 10C0 11.6111 0.396829 13.1333 1.08841 14.4889L4.39905 11.9778Z" fill="#FBBC05"/>
<path d="M10.2041 3.86666C12.1202 3.86666 13.4127 4.67778 14.1497 5.35561L17.0295 2.60002C15.2608 0.988899 12.9592 0 10.2041 0C6.21314 0 2.76643 2.24444 1.08844 5.5111L4.38775 8.02226C5.21548 5.61114 7.50571 3.86666 10.2041 3.86666Z" fill="#EB4335"/>
</svg>
