<svg width="32" height="32" viewBox="0 0 32 32" fill="none" xmlns="http://www.w3.org/2000/svg">
<mask id="mask0_20_544" style="mask-type:alpha" maskUnits="userSpaceOnUse" x="0" y="0" width="32" height="32">
<rect width="32" height="32" fill="#C4C4C4"/>
</mask>
<g mask="url(#mask0_20_544)">
<path d="M21.006 32C20.077 32 19.2493 31.6659 18.4521 31.3479C17.769 31.0717 17.1251 30.813 16.5142 30.813C15.9718 30.813 15.3532 31.0596 14.698 31.3183C13.9058 31.6295 13.0085 31.9865 12.0338 31.9865C10.4318 31.9865 8.99578 31.0111 7.63709 29.0103C7.58005 28.9254 2.04896 20.2904 4.73593 13.8785C6.20742 10.3674 8.32784 8.5849 11.0376 8.5849C12.4673 8.5849 13.7867 9.06185 14.8463 9.44584C15.4394 9.66006 15.9996 9.86216 16.295 9.86216C16.6435 9.86216 17.2037 9.64524 17.7931 9.41215C18.7766 9.02816 20.0035 8.54717 21.4103 8.54717C23.4496 8.54717 25.295 9.54823 27.0542 11.6069C27.1136 11.6773 27.1585 11.7599 27.1862 11.8497C27.2139 11.9394 27.2238 12.0343 27.2152 12.1284C27.2054 12.2222 27.1775 12.3129 27.1332 12.3947C27.089 12.4765 27.0293 12.5478 26.9579 12.604C25.1036 14.0402 24.1632 15.7014 24.1632 17.5432C24.1632 19.8243 25.2228 21.5003 27.7006 23.14C27.831 23.2255 27.9277 23.3585 27.9725 23.5143C28.0173 23.67 28.0071 23.8378 27.944 23.9861C25.6144 29.5263 23.475 32 21.006 32ZM16.3545 8.19956C16.2024 8.19956 16.0491 8.18878 15.8982 8.16992C15.7487 8.15101 15.6105 8.07579 15.5087 7.95789C15.4069 7.84 15.3481 7.68722 15.3431 7.52725C15.1758 3.01911 18.7703 0.258447 21.4268 0.00245613C21.5846 -0.0118348 21.7418 0.0365958 21.868 0.138382C21.9942 0.240168 22.0804 0.388079 22.11 0.553511C22.4027 2.28886 21.8552 4.19667 20.6042 5.78651C19.4154 7.2982 17.826 8.19956 16.3545 8.19956Z" fill="white"/>
</g>
</svg>
