<svg width="32" height="32" viewBox="0 0 32 32" fill="none" xmlns="http://www.w3.org/2000/svg">
<rect width="32" height="32" fill="#F5DE19"/>
<path d="M17.835 15.3107H14.7282V23.5631C14.7282 25.6051 14.0279 26.1752 12.8093 26.1752C12.2382 26.1752 11.7239 26.0773 11.3238 25.9398L11 28.3556C11.5709 28.5522 12.447 28.67 13.1323 28.67C15.9303 28.67 17.835 27.3546 17.835 23.5834V15.3107ZM24.6103 15C21.6028 15 19.6991 16.7087 19.6991 18.9672C19.6991 20.9122 21.1652 22.1299 23.2968 22.9154C24.8386 23.4652 25.448 23.9565 25.448 24.7615C25.448 25.6453 24.7435 26.215 23.4112 26.215C22.1737 26.215 21.0504 25.8017 20.289 25.3895V25.3887L19.6991 27.8439C20.4229 28.257 21.7745 28.6693 23.2396 28.6693C26.7614 28.6692 28.3982 26.7838 28.3982 24.5645C28.3982 22.679 27.3513 21.4616 25.0864 20.597C23.4111 19.9294 22.707 19.5564 22.707 18.7118C22.707 18.0439 23.3162 17.4354 24.5727 17.4354C25.8095 17.4354 26.6599 17.8512 27.1555 18.1069L27.8982 15.6214C27.1215 15.2804 26.0754 15 24.6103 15Z" fill="#161616"/>
</svg>
