<svg width="34" height="34" viewBox="0 0 34 34" fill="none" xmlns="http://www.w3.org/2000/svg">
<rect width="34" height="34" rx="4" fill="white" fill-opacity="0.2"/>
<path d="M14.835 9.35618H11.2736V18.816C11.2736 21.1567 10.4709 21.8102 9.07396 21.8102C8.41934 21.8102 7.8298 21.698 7.37118 21.5403L7 24.3096C7.6544 24.5349 8.65866 24.67 9.4443 24.67C12.6517 24.67 14.835 23.1622 14.835 18.8392V9.35618ZM22.6016 9C19.154 9 16.9718 10.9587 16.9718 13.5476C16.9718 15.7771 18.6524 17.1731 21.0959 18.0734C22.8632 18.7037 23.5618 19.2668 23.5618 20.1897C23.5618 21.2027 22.7543 21.8558 21.227 21.8558C19.8085 21.8558 18.5208 21.3821 17.6481 20.9096V20.9086L16.9718 23.723C17.8016 24.1966 19.3508 24.6692 21.0303 24.6692C25.0674 24.6691 26.9436 22.5078 26.9436 19.9638C26.9436 17.8025 25.7435 16.4069 23.1473 15.4158C21.2269 14.6505 20.4197 14.223 20.4197 13.2549C20.4197 12.4892 21.1181 11.7917 22.5585 11.7917C23.9762 11.7917 24.951 12.2683 25.5191 12.5614L26.3705 9.71232C25.4801 9.32141 24.281 9 22.6016 9Z" fill="white"/>
</svg>
