<svg width="20" height="16" viewBox="0 0 20 16" fill="none" xmlns="http://www.w3.org/2000/svg">
<path d="M7.835 0.356181H4.27363V9.81596C4.27363 12.1567 3.4709 12.8102 2.07396 12.8102C1.41934 12.8102 0.829798 12.698 0.371184 12.5403L0 15.3096C0.6544 15.5349 1.65866 15.67 2.4443 15.67C5.65166 15.67 7.835 14.1622 7.835 9.83916V0.356181ZM15.6016 0C12.154 0 9.97181 1.95866 9.97181 4.54759C9.97181 6.77714 11.6524 8.17306 14.0959 9.07342C15.8632 9.70369 16.5618 10.2668 16.5618 11.1897C16.5618 12.2027 15.7543 12.8558 14.227 12.8558C12.8085 12.8558 11.5208 12.3821 10.6481 11.9096V11.9086L9.97181 14.723C10.8016 15.1966 12.3508 15.6692 14.0303 15.6692C18.0674 15.6691 19.9436 13.5078 19.9436 10.9638C19.9436 8.80253 18.7435 7.40692 16.1473 6.41584C14.2269 5.65055 13.4197 5.22301 13.4197 4.25489C13.4197 3.4892 14.1181 2.79166 15.5585 2.79166C16.9762 2.79166 17.951 3.26831 18.5191 3.56141L19.3705 0.712317C18.4801 0.321413 17.281 0 15.6016 0Z" fill="white"/>
</svg>
