<svg width="34" height="34" viewBox="0 0 34 34" fill="none" xmlns="http://www.w3.org/2000/svg">
<rect width="34" height="34" rx="4" fill="white" fill-opacity="0.2"/>
<mask id="mask0_181_247" style="mask-type:alpha" maskUnits="userSpaceOnUse" x="6" y="6" width="23" height="23">
<rect x="6" y="6" width="23" height="23" fill="#C4C4C4"/>
</mask>
<g mask="url(#mask0_181_247)">
<path d="M19.5038 26C18.9231 26 18.4058 25.7912 17.9076 25.5924C17.4806 25.4198 17.0782 25.2581 16.6964 25.2581C16.3573 25.2581 15.9708 25.4122 15.5612 25.5739C15.0661 25.7684 14.5053 25.9916 13.8961 25.9916C12.8949 25.9916 11.9974 25.3819 11.1482 24.1314C11.1125 24.0784 7.6556 18.6815 9.33495 14.6741C10.2546 12.4796 11.5799 11.3656 13.2735 11.3656C14.1671 11.3656 14.9917 11.6637 15.6539 11.9036C16.0246 12.0375 16.3748 12.1638 16.5593 12.1638C16.7772 12.1638 17.1273 12.0283 17.4957 11.8826C18.1104 11.6426 18.8772 11.342 19.7565 11.342C21.031 11.342 22.1844 11.9676 23.2839 13.2543C23.321 13.2983 23.3491 13.3499 23.3664 13.406C23.3837 13.4621 23.3899 13.5215 23.3845 13.5802C23.3784 13.6389 23.3609 13.6955 23.3333 13.7467C23.3056 13.7978 23.2683 13.8424 23.2237 13.8775C22.0648 14.7751 21.477 15.8134 21.477 16.9645C21.477 18.3902 22.1392 19.4377 23.6879 20.4625C23.7694 20.5159 23.8298 20.5991 23.8578 20.6964C23.8858 20.7938 23.8795 20.8986 23.84 20.9913C22.384 24.4539 21.0469 26 19.5038 26ZM16.5966 11.1247C16.5015 11.1247 16.4057 11.118 16.3114 11.1062C16.218 11.0944 16.1316 11.0474 16.0679 10.9737C16.0043 10.9 15.9676 10.8045 15.9644 10.7045C15.8599 7.88694 18.1064 6.16153 19.7668 6.00154C19.8654 5.9926 19.9637 6.02287 20.0425 6.08649C20.1214 6.15011 20.1753 6.24255 20.1937 6.34594C20.3767 7.43054 20.0345 8.62292 19.2526 9.61657C18.5096 10.5614 17.5163 11.1247 16.5966 11.1247Z" fill="white"/>
</g>
</svg>
