<svg width="24" height="24" viewBox="0 0 24 24" fill="none" xmlns="http://www.w3.org/2000/svg">
<mask id="mask0_28_595" style="mask-type:alpha" maskUnits="userSpaceOnUse" x="0" y="0" width="24" height="24">
<rect width="24" height="24" fill="#C4C4C4"/>
</mask>
<g mask="url(#mask0_28_595)">
<path fill-rule="evenodd" clip-rule="evenodd" d="M16.9215 2.00152C16.5403 1.98904 16.1413 2.05375 15.7412 2.18002C14.9411 2.43258 14.1026 2.92474 13.2422 3.60618C12.905 3.87324 12.5647 4.17852 12.2233 4.50242C11.8894 4.18674 11.5561 3.88966 11.2263 3.6285C10.3666 2.9476 9.53037 2.45525 8.73205 2.20327C7.93373 1.95129 7.1394 1.94348 6.48701 2.31018C5.83463 2.67689 5.4445 3.35004 5.26948 4.14913C5.09446 4.94822 5.11374 5.89983 5.28953 6.96519C5.35059 7.33524 5.43768 7.72346 5.53686 8.11895C5.16409 8.22894 4.80208 8.34459 4.46639 8.47224C3.45329 8.85748 2.61502 9.31836 2.00458 9.86679C1.39415 10.4152 1 11.0808 1 11.8117C1 12.5426 1.39415 13.2073 2.00458 13.7557C2.61502 14.3042 3.45329 14.766 4.46639 15.1512C4.82534 15.2877 5.21397 15.4106 5.61516 15.5268C5.47086 16.0518 5.35394 16.5612 5.27426 17.0441C5.09832 18.1103 5.07975 19.062 5.25516 19.8629C5.43057 20.6638 5.8209 21.3408 6.47651 21.7093C7.13212 22.0778 7.93001 22.0688 8.73014 21.8162C9.53027 21.5637 10.3678 21.0724 11.2282 20.391C11.5623 20.1264 11.9003 19.8246 12.2385 19.5041C12.5786 19.8265 12.9179 20.1297 13.2536 20.3956C14.1134 21.0765 14.9505 21.568 15.7489 21.8199C16.5472 22.0719 17.3415 22.0797 17.9939 21.713C18.6463 21.3463 19.0354 20.6732 19.2105 19.8741C19.3855 19.075 19.3662 18.1243 19.1904 17.059C19.1105 16.5747 18.9935 16.0636 18.8485 15.537C19.263 15.418 19.6639 15.2918 20.0336 15.1512C21.0467 14.766 21.885 14.3042 22.4954 13.7557C23.1058 13.2073 23.5 12.5426 23.5 11.8117C23.5 11.0808 23.1058 10.4152 22.4954 9.86679C21.885 9.31836 21.0467 8.85748 20.0336 8.47224C19.6931 8.34275 19.3255 8.2256 18.9469 8.1143C19.0469 7.71638 19.1357 7.32538 19.1971 6.95311C19.373 5.88689 19.3916 4.93423 19.2162 4.13332C19.0408 3.33242 18.6495 2.65639 17.9939 2.28787C17.6661 2.10361 17.3027 2.014 16.9215 2.00152ZM16.8766 2.97027C17.1158 2.97664 17.3199 3.03206 17.4945 3.13018C17.8436 3.32642 18.1016 3.70835 18.2393 4.33693C18.377 4.96551 18.3722 5.81479 18.2097 6.79971C18.1541 7.13692 18.0733 7.49431 17.9815 7.86049C16.9814 7.62617 15.8855 7.45229 14.7175 7.35009C14.1312 6.55926 13.5287 5.8388 12.9213 5.19969C13.2426 4.89435 13.5618 4.60878 13.8734 4.36203C14.6682 3.73255 15.4207 3.30422 16.0487 3.10601C16.3627 3.0069 16.6374 2.9639 16.8766 2.97027ZM7.59855 2.97306C7.83914 2.96652 8.11444 3.0094 8.42934 3.10879C9.05912 3.30758 9.81294 3.73572 10.6085 4.36575C10.9138 4.60754 11.2259 4.88768 11.5405 5.18575C10.9286 5.83009 10.3211 6.55679 9.7309 7.35474C8.56787 7.45879 7.47645 7.63362 6.48128 7.86886C6.39017 7.50471 6.30937 7.14916 6.25401 6.81365C6.09135 5.82788 6.08729 4.97848 6.22536 4.34809C6.36343 3.71769 6.62359 3.33288 6.97594 3.13483C7.15211 3.0358 7.35795 2.9796 7.59855 2.97306ZM12.2385 5.88488C12.6368 6.30686 13.0352 6.76863 13.4303 7.26549C13.0421 7.24973 12.6491 7.24038 12.25 7.24038C11.843 7.24038 11.4425 7.25003 11.0468 7.26642C11.442 6.76917 11.8402 6.30717 12.2385 5.88488ZM12.25 8.20169C12.9149 8.20169 13.5629 8.22829 14.1933 8.27328C14.627 8.87979 15.0509 9.52323 15.4547 10.2043C15.8096 10.8027 16.1307 11.4002 16.423 11.9902C16.1277 12.5881 15.8011 13.1937 15.4414 13.8004C15.1247 14.3344 14.794 14.8416 14.4578 15.3306C13.7458 15.3886 13.008 15.4208 12.25 15.4208C11.4738 15.4208 10.7194 15.3867 9.9916 15.326C9.66103 14.844 9.33589 14.3445 9.02425 13.8189C8.66531 13.2137 8.34037 12.6092 8.04545 12.0125C8.3416 11.4125 8.668 10.8047 9.02903 10.1959C9.43078 9.51843 9.8534 8.87871 10.2848 8.27514C10.9219 8.22914 11.5775 8.20169 12.25 8.20169ZM15.4519 8.39228C16.2578 8.49019 17.0146 8.62612 17.7189 8.78926C17.5099 9.45622 17.2525 10.1529 16.9406 10.8718C16.7381 10.4917 16.5284 10.1104 16.3018 9.72826C16.0271 9.26517 15.7411 8.82367 15.4519 8.39228ZM8.99561 8.39972C8.71247 8.82304 8.43388 9.25596 8.16482 9.70967C7.9353 10.0967 7.72122 10.4832 7.51642 10.8681C7.20723 10.1535 6.95137 9.46078 6.74389 8.79763C7.44291 8.63419 8.19525 8.49874 8.99561 8.39972ZM18.6862 9.04214C19.0328 9.14424 19.3675 9.25079 19.6746 9.36754C20.6085 9.72267 21.3472 10.1432 21.826 10.5734C22.3048 11.0035 22.5126 11.4138 22.5126 11.8117C22.5126 12.2097 22.3048 12.6199 21.826 13.0501C21.3472 13.4802 20.6085 13.9008 19.6746 14.2559C19.3334 14.3856 18.9585 14.5033 18.5688 14.6148C18.2907 13.7776 17.9359 12.9042 17.5136 12.0125C17.9991 10.9889 18.3914 9.99078 18.6862 9.04214ZM5.79756 9.04679C6.08899 9.98596 6.47622 10.9741 6.95493 11.9874C6.52983 12.8843 6.17322 13.7626 5.894 14.6045C5.518 14.496 5.15583 14.3815 4.82544 14.2559C3.89152 13.9008 3.15278 13.4802 2.67399 13.0501C2.19519 12.6199 1.98739 12.2097 1.98739 11.8117C1.98739 11.4138 2.19519 11.0035 2.67399 10.5734C3.15278 10.1432 3.89152 9.72267 4.82544 9.36754C5.12775 9.25258 5.45686 9.14755 5.79756 9.04679ZM12.25 9.62507C10.9057 9.62507 9.80539 10.6963 9.80539 12.0051C9.80539 13.3139 10.9057 14.3851 12.25 14.3851C13.5943 14.3851 14.6946 13.3139 14.6946 12.0051C14.6946 10.6963 13.5943 9.62507 12.25 9.62507ZM7.52788 13.131C7.73357 13.5178 7.94749 13.9059 8.17819 14.295C8.35869 14.5993 8.54302 14.8956 8.73014 15.1865C8.07353 15.0979 7.44938 14.9857 6.86325 14.8528C7.04965 14.297 7.27264 13.7201 7.52788 13.131ZM16.953 13.131C17.2093 13.7214 17.4324 14.2993 17.6196 14.8565C17.0316 14.9892 16.4055 15.1011 15.7469 15.1893C15.9365 14.8948 16.1237 14.5948 16.3065 14.2866C16.5355 13.9004 16.7486 13.515 16.953 13.131ZM6.58155 15.7769C7.46641 15.981 8.42551 16.1377 9.44251 16.2399C10.1214 17.1959 10.8287 18.0549 11.5405 18.8059C11.2222 19.108 10.9067 19.3916 10.598 19.6361C9.80313 20.2656 9.04967 20.693 8.4217 20.8912C7.79372 21.0894 7.32505 21.0632 6.97594 20.867C6.62682 20.6708 6.36972 20.2888 6.23205 19.6603C6.09438 19.0317 6.09818 18.1833 6.26069 17.1984C6.33442 16.7516 6.4446 16.2732 6.58155 15.7769ZM17.9022 15.7806C18.0403 16.2799 18.1508 16.7601 18.225 17.2096C18.3876 18.1953 18.3917 19.0447 18.2536 19.6751C18.1156 20.3055 17.8573 20.6913 17.505 20.8893C17.1526 21.0874 16.6794 21.1132 16.0497 20.9144C15.4199 20.7156 14.666 20.2875 13.8705 19.6575C13.5596 19.4112 13.2419 19.1253 12.9213 18.8207C13.6379 18.0668 14.3502 17.2035 15.0336 16.2417C16.0532 16.1403 17.0149 15.9845 17.9022 15.7806ZM10.7183 16.3375C11.2203 16.3641 11.7289 16.3821 12.25 16.3821C12.7538 16.3821 13.246 16.3652 13.732 16.3403C13.2352 16.993 12.7287 17.5863 12.2242 18.1207C11.7201 17.5852 11.2145 16.9908 10.7183 16.3375Z" fill="white"/>
</g>
</svg>
