<svg width="34" height="34" viewBox="0 0 34 34" fill="none" xmlns="http://www.w3.org/2000/svg">
<rect width="34" height="34" rx="4" fill="white" fill-opacity="0.2"/>
<g clip-path="url(#clip0_191_2)">
<path d="M25.0972 14.251C24.3378 14.251 23.7222 14.8666 23.7222 15.626V21.126C23.7222 21.8853 24.3378 22.501 25.0972 22.501C25.8567 22.501 26.4722 21.8853 26.4722 21.126V15.626C26.4722 14.8666 25.8567 14.251 25.0972 14.251Z" fill="white"/>
<path d="M8.59723 14.251C7.83781 14.251 7.22223 14.8666 7.22223 15.626V21.126C7.22223 21.8853 7.83781 22.501 8.59723 22.501C9.35665 22.501 9.97223 21.8853 9.97223 21.126V15.626C9.97223 14.8666 9.35665 14.251 8.59723 14.251Z" fill="white"/>
<path d="M20.4394 8.72513L21.5432 7.0689C21.754 6.75267 21.6681 6.32634 21.3525 6.11553C21.0343 5.90471 20.6093 5.99065 20.3992 6.3062L19.2973 7.95941C18.5695 7.59719 17.7598 7.37505 16.8885 7.37505C15.9945 7.37505 15.1621 7.6097 14.4151 7.98962L13.2932 6.30621C13.0817 5.99065 12.6567 5.90472 12.3398 6.11553C12.0243 6.32635 11.9383 6.75268 12.1492 7.0689L13.2763 8.76012C12.1288 9.76821 11.3885 11.2279 11.3885 12.869V12.8751H22.3462C22.3462 11.2106 21.5999 9.73455 20.4394 8.72512L20.4394 8.72513ZM14.7837 11.5001C14.404 11.5001 14.0962 11.1922 14.0962 10.8126C14.0962 10.4328 14.404 10.1251 14.7837 10.1251C15.1634 10.1251 15.4712 10.4328 15.4712 10.8126C15.4712 11.1922 15.1634 11.5001 14.7837 11.5001ZM18.9087 11.5001C18.529 11.5001 18.2212 11.1922 18.2212 10.8126C18.2212 10.4328 18.529 10.1251 18.9087 10.1251C19.2883 10.1251 19.5962 10.4328 19.5962 10.8126C19.5962 11.1922 19.2883 11.5001 18.9087 11.5001Z" fill="white"/>
<path d="M11.3472 22.4949C11.3458 22.8608 11.4895 23.212 11.748 23.4711C12.0058 23.7303 12.3563 23.876 12.7222 23.876V26.626C12.7222 27.3853 13.3378 28.001 14.0972 28.001C14.8566 28.001 15.4722 27.3853 15.4722 26.626V23.876H18.2222V26.626C18.2222 27.3853 18.8378 28.001 19.5972 28.001C20.3566 28.001 20.9722 27.3853 20.9722 26.626V23.876C21.7295 23.876 22.3438 23.2643 22.3472 22.507V14.251H11.3835L11.3472 22.4949L11.3472 22.4949Z" fill="white"/>
</g>
<defs>
<clipPath id="clip0_191_2">
<rect width="22" height="22" fill="white" transform="translate(6 6)"/>
</clipPath>
</defs>
</svg>
