<svg width="34" height="34" viewBox="0 0 34 34" fill="none" xmlns="http://www.w3.org/2000/svg">
<rect width="34" height="34" rx="4" fill="white" fill-opacity="0.2"/>
<mask id="mask0_191_6" style="mask-type:alpha" maskUnits="userSpaceOnUse" x="5" y="5" width="24" height="24">
<rect x="5" y="5" width="24" height="24" fill="#C4C4C4"/>
</mask>
<g mask="url(#mask0_191_6)">
<path fill-rule="evenodd" clip-rule="evenodd" d="M21.9215 7.00152C21.5403 6.98904 21.1413 7.05375 20.7412 7.18002C19.9411 7.43258 19.1026 7.92474 18.2422 8.60618C17.905 8.87324 17.5647 9.17852 17.2233 9.50242C16.8894 9.18674 16.5561 8.88966 16.2263 8.6285C15.3666 7.9476 14.5304 7.45525 13.732 7.20327C12.9337 6.95129 12.1394 6.94348 11.487 7.31018C10.8346 7.67689 10.4445 8.35004 10.2695 9.14913C10.0945 9.94822 10.1137 10.8998 10.2895 11.9652C10.3506 12.3352 10.4377 12.7235 10.5369 13.119C10.1641 13.2289 9.80208 13.3446 9.46639 13.4722C8.45329 13.8575 7.61502 14.3184 7.00458 14.8668C6.39415 15.4152 6 16.0808 6 16.8117C6 17.5426 6.39415 18.2073 7.00458 18.7557C7.61502 19.3042 8.45329 19.766 9.46639 20.1512C9.82534 20.2877 10.214 20.4106 10.6152 20.5268C10.4709 21.0518 10.3539 21.5612 10.2743 22.0441C10.0983 23.1103 10.0797 24.062 10.2552 24.8629C10.4306 25.6638 10.8209 26.3408 11.4765 26.7093C12.1321 27.0778 12.93 27.0688 13.7301 26.8162C14.5303 26.5637 15.3678 26.0724 16.2282 25.391C16.5623 25.1264 16.9003 24.8246 17.2385 24.5041C17.5786 24.8265 17.9179 25.1297 18.2536 25.3956C19.1134 26.0765 19.9505 26.568 20.7489 26.8199C21.5472 27.0719 22.3415 27.0797 22.9939 26.713C23.6463 26.3463 24.0354 25.6732 24.2105 24.8741C24.3855 24.075 24.3662 23.1243 24.1904 22.059C24.1105 21.5747 23.9935 21.0636 23.8485 20.537C24.263 20.418 24.6639 20.2918 25.0336 20.1512C26.0467 19.766 26.885 19.3042 27.4954 18.7557C28.1058 18.2073 28.5 17.5426 28.5 16.8117C28.5 16.0808 28.1058 15.4152 27.4954 14.8668C26.885 14.3184 26.0467 13.8575 25.0336 13.4722C24.6931 13.3428 24.3255 13.2256 23.9469 13.1143C24.0469 12.7164 24.1357 12.3254 24.1971 11.9531C24.373 10.8869 24.3916 9.93423 24.2162 9.13332C24.0408 8.33242 23.6495 7.65639 22.9939 7.28787C22.6661 7.10361 22.3027 7.014 21.9215 7.00152ZM21.8766 7.97027C22.1158 7.97664 22.3199 8.03206 22.4945 8.13018C22.8436 8.32642 23.1016 8.70835 23.2393 9.33693C23.377 9.96551 23.3722 10.8148 23.2097 11.7997C23.1541 12.1369 23.0733 12.4943 22.9815 12.8605C21.9814 12.6262 20.8855 12.4523 19.7175 12.3501C19.1312 11.5593 18.5287 10.8388 17.9213 10.1997C18.2426 9.89435 18.5618 9.60878 18.8734 9.36203C19.6682 8.73255 20.4207 8.30422 21.0487 8.10601C21.3627 8.0069 21.6374 7.9639 21.8766 7.97027ZM12.5985 7.97306C12.8391 7.96652 13.1144 8.0094 13.4293 8.10879C14.0591 8.30758 14.8129 8.73572 15.6085 9.36575C15.9138 9.60754 16.2259 9.88768 16.5405 10.1857C15.9286 10.8301 15.3211 11.5568 14.7309 12.3547C13.5679 12.4588 12.4765 12.6336 11.4813 12.8689C11.3902 12.5047 11.3094 12.1492 11.254 11.8137C11.0914 10.8279 11.0873 9.97848 11.2254 9.34809C11.3634 8.71769 11.6236 8.33288 11.9759 8.13483C12.1521 8.0358 12.358 7.9796 12.5985 7.97306ZM17.2385 10.8849C17.6368 11.3069 18.0352 11.7686 18.4303 12.2655C18.0421 12.2497 17.6491 12.2404 17.25 12.2404C16.843 12.2404 16.4425 12.25 16.0468 12.2664C16.442 11.7692 16.8402 11.3072 17.2385 10.8849ZM17.25 13.2017C17.9149 13.2017 18.5629 13.2283 19.1933 13.2733C19.627 13.8798 20.0509 14.5232 20.4547 15.2043C20.8096 15.8027 21.1307 16.4002 21.423 16.9902C21.1277 17.5881 20.8011 18.1937 20.4414 18.8004C20.1247 19.3344 19.794 19.8416 19.4578 20.3306C18.7458 20.3886 18.008 20.4208 17.25 20.4208C16.4738 20.4208 15.7194 20.3867 14.9916 20.326C14.661 19.844 14.3359 19.3445 14.0243 18.8189C13.6653 18.2137 13.3404 17.6092 13.0455 17.0125C13.3416 16.4125 13.668 15.8047 14.029 15.1959C14.4308 14.5184 14.8534 13.8787 15.2848 13.2751C15.9219 13.2291 16.5775 13.2017 17.25 13.2017ZM20.4519 13.3923C21.2578 13.4902 22.0146 13.6261 22.7189 13.7893C22.5099 14.4562 22.2525 15.1529 21.9406 15.8718C21.7381 15.4917 21.5284 15.1104 21.3018 14.7283C21.0271 14.2652 20.7411 13.8237 20.4519 13.3923ZM13.9956 13.3997C13.7125 13.823 13.4339 14.256 13.1648 14.7097C12.9353 15.0967 12.7212 15.4832 12.5164 15.8681C12.2072 15.1535 11.9514 14.4608 11.7439 13.7976C12.4429 13.6342 13.1952 13.4987 13.9956 13.3997ZM23.6862 14.0421C24.0328 14.1442 24.3675 14.2508 24.6746 14.3675C25.6085 14.7227 26.3472 15.1432 26.826 15.5734C27.3048 16.0035 27.5126 16.4138 27.5126 16.8117C27.5126 17.2097 27.3048 17.6199 26.826 18.0501C26.3472 18.4802 25.6085 18.9008 24.6746 19.2559C24.3334 19.3856 23.9585 19.5033 23.5688 19.6148C23.2907 18.7776 22.9359 17.9042 22.5136 17.0125C22.9991 15.9889 23.3914 14.9908 23.6862 14.0421ZM10.7976 14.0468C11.089 14.986 11.4762 15.9741 11.9549 16.9874C11.5298 17.8843 11.1732 18.7626 10.894 19.6045C10.518 19.496 10.1558 19.3815 9.82544 19.2559C8.89152 18.9008 8.15278 18.4802 7.67399 18.0501C7.19519 17.6199 6.98739 17.2097 6.98739 16.8117C6.98739 16.4138 7.19519 16.0035 7.67399 15.5734C8.15278 15.1432 8.89152 14.7227 9.82544 14.3675C10.1278 14.2526 10.4569 14.1476 10.7976 14.0468ZM17.25 14.6251C15.9057 14.6251 14.8054 15.6963 14.8054 17.0051C14.8054 18.3139 15.9057 19.3851 17.25 19.3851C18.5943 19.3851 19.6946 18.3139 19.6946 17.0051C19.6946 15.6963 18.5943 14.6251 17.25 14.6251ZM12.5279 18.131C12.7336 18.5178 12.9475 18.9059 13.1782 19.295C13.3587 19.5993 13.543 19.8956 13.7301 20.1865C13.0735 20.0979 12.4494 19.9857 11.8633 19.8528C12.0496 19.297 12.2726 18.7201 12.5279 18.131ZM21.953 18.131C22.2093 18.7214 22.4324 19.2993 22.6196 19.8565C22.0316 19.9892 21.4055 20.1011 20.7469 20.1893C20.9365 19.8948 21.1237 19.5948 21.3065 19.2866C21.5355 18.9004 21.7486 18.515 21.953 18.131ZM11.5816 20.7769C12.4664 20.981 13.4255 21.1377 14.4425 21.2399C15.1214 22.1959 15.8287 23.0549 16.5405 23.8059C16.2222 24.108 15.9067 24.3916 15.598 24.6361C14.8031 25.2656 14.0497 25.693 13.4217 25.8912C12.7937 26.0894 12.3251 26.0632 11.9759 25.867C11.6268 25.6708 11.3697 25.2888 11.232 24.6603C11.0944 24.0317 11.0982 23.1833 11.2607 22.1984C11.3344 21.7516 11.4446 21.2732 11.5816 20.7769ZM22.9022 20.7806C23.0403 21.2799 23.1508 21.7601 23.225 22.2096C23.3876 23.1953 23.3917 24.0447 23.2536 24.6751C23.1156 25.3055 22.8573 25.6913 22.505 25.8893C22.1526 26.0874 21.6794 26.1132 21.0497 25.9144C20.4199 25.7156 19.666 25.2875 18.8705 24.6575C18.5596 24.4112 18.2419 24.1253 17.9213 23.8207C18.6379 23.0668 19.3502 22.2035 20.0336 21.2417C21.0532 21.1403 22.0149 20.9845 22.9022 20.7806ZM15.7183 21.3375C16.2203 21.3641 16.7289 21.3821 17.25 21.3821C17.7538 21.3821 18.246 21.3652 18.732 21.3403C18.2352 21.993 17.7287 22.5863 17.2242 23.1207C16.7201 22.5852 16.2145 21.9908 15.7183 21.3375Z" fill="white"/>
</g>
</svg>
