<svg width="24" height="24" viewBox="0 0 24 24" fill="none" xmlns="http://www.w3.org/2000/svg">
<g clip-path="url(#clip0_28_614)">
<path d="M19.0972 8.25098C18.3378 8.25098 17.7222 8.86655 17.7222 9.62598V15.126C17.7222 15.8853 18.3378 16.501 19.0972 16.501C19.8567 16.501 20.4722 15.8853 20.4722 15.126V9.62598C20.4722 8.86655 19.8567 8.25098 19.0972 8.25098Z" fill="white"/>
<path d="M2.59723 8.25098C1.83781 8.25098 1.22223 8.86655 1.22223 9.62598V15.126C1.22223 15.8853 1.83781 16.501 2.59723 16.501C3.35665 16.501 3.97223 15.8853 3.97223 15.126V9.62598C3.97223 8.86655 3.35665 8.25098 2.59723 8.25098Z" fill="white"/>
<path d="M14.4394 2.72513L15.5432 1.0689C15.754 0.752675 15.6681 0.326345 15.3525 0.11553C15.0343 -0.0952853 14.6093 -0.00934819 14.3992 0.306204L13.2973 1.95941C12.5695 1.59719 11.7598 1.37505 10.8885 1.37505C9.99453 1.37505 9.1621 1.6097 8.41509 1.98962L7.2932 0.306206C7.08172 -0.00934502 6.65673 -0.0952825 6.33983 0.115532C6.02428 0.326347 5.93835 0.752679 6.14916 1.0689L7.27633 2.76012C6.12877 3.76821 5.38847 5.22789 5.38847 6.86901V6.87505H16.3462C16.3462 5.2106 15.5999 3.73455 14.4394 2.72512L14.4394 2.72513ZM8.78368 5.50006C8.40401 5.50006 8.09618 5.19222 8.09618 4.81256C8.09618 4.4328 8.40401 4.12506 8.78368 4.12506C9.16335 4.12506 9.47118 4.4328 9.47118 4.81256C9.47118 5.19222 9.16335 5.50006 8.78368 5.50006ZM12.9087 5.50006C12.529 5.50006 12.2212 5.19222 12.2212 4.81256C12.2212 4.4328 12.529 4.12506 12.9087 4.12506C13.2883 4.12506 13.5962 4.4328 13.5962 4.81256C13.5962 5.19222 13.2883 5.50006 12.9087 5.50006Z" fill="white"/>
<path d="M5.34719 16.4949C5.34585 16.8608 5.48953 17.212 5.74801 17.4711C6.00582 17.7303 6.35629 17.876 6.72219 17.876V20.626C6.72219 21.3853 7.33777 22.001 8.09719 22.001C8.85661 22.001 9.47219 21.3853 9.47219 20.626V17.876H12.2222V20.626C12.2222 21.3853 12.8378 22.001 13.5972 22.001C14.3566 22.001 14.9722 21.3853 14.9722 20.626V17.876C15.7295 17.876 16.3438 17.2643 16.3472 16.507V8.25098H5.38345L5.3472 16.4949L5.34719 16.4949Z" fill="white"/>
</g>
<defs>
<clipPath id="clip0_28_614">
<rect width="22" height="22" fill="white"/>
</clipPath>
</defs>
</svg>
