<svg width="32" height="32" viewBox="0 0 32 32" fill="none" xmlns="http://www.w3.org/2000/svg">
<mask id="mask0_20_534" style="mask-type:alpha" maskUnits="userSpaceOnUse" x="0" y="0" width="32" height="32">
<rect width="32" height="32" fill="#C4C4C4"/>
</mask>
<g mask="url(#mask0_20_534)">
<path fill-rule="evenodd" clip-rule="evenodd" d="M22.1176 3.55769C21.6093 3.54105 21.0773 3.62733 20.5439 3.7957C19.477 4.13243 18.3591 4.78865 17.2118 5.69724C16.7622 6.05332 16.3085 6.46035 15.8533 6.89222C15.4081 6.47132 14.9637 6.07521 14.524 5.72699C13.3777 4.81913 12.2627 4.16266 11.1983 3.82669C10.1339 3.49071 9.07478 3.4803 8.20493 3.96924C7.33509 4.45818 6.81491 5.35572 6.58156 6.42117C6.3482 7.48663 6.37391 8.75544 6.60829 10.1759C6.68971 10.6693 6.80582 11.1869 6.93806 11.7143C6.44103 11.8609 5.95836 12.0151 5.51076 12.1853C4.15997 12.699 3.04227 13.3135 2.22836 14.0447C1.41445 14.776 0.888916 15.6635 0.888916 16.638C0.888916 17.6125 1.41445 18.4987 2.22836 19.23C3.04227 19.9612 4.15997 20.577 5.51076 21.0906C5.98937 21.2726 6.50754 21.4365 7.04247 21.5914C6.85006 22.2914 6.69416 22.9706 6.58792 23.6144C6.35335 25.0361 6.32858 26.305 6.56246 27.3729C6.79634 28.4408 7.31678 29.3434 8.19093 29.8348C9.06508 30.3261 10.1289 30.314 11.1958 29.9773C12.2626 29.6406 13.3793 28.9856 14.5266 28.077C14.972 27.7242 15.4227 27.3217 15.8736 26.8944C16.327 27.3243 16.7794 27.7287 17.2271 28.0832C18.3734 28.9911 19.4896 29.6463 20.5541 29.9823C21.6185 30.3182 22.6776 30.3287 23.5474 29.8397C24.4173 29.3508 24.9362 28.4532 25.1695 27.3878C25.4029 26.3223 25.3772 25.0547 25.1428 23.6343C25.0363 22.9887 24.8803 22.3072 24.687 21.605C25.2396 21.4463 25.7741 21.2781 26.2671 21.0906C27.6179 20.577 28.7356 19.9612 29.5495 19.23C30.3634 18.4987 30.8889 17.6125 30.8889 16.638C30.8889 15.6635 30.3634 14.776 29.5495 14.0447C28.7356 13.3135 27.6179 12.699 26.2671 12.1853C25.8131 12.0127 25.323 11.8565 24.8181 11.7081C24.9514 11.1775 25.0698 10.6562 25.1517 10.1598C25.3863 8.73819 25.4111 7.46797 25.1772 6.4001C24.9433 5.33223 24.4216 4.43085 23.5474 3.93949C23.1104 3.69381 22.6259 3.57433 22.1176 3.55769ZM22.0577 4.84936C22.3767 4.85785 22.6488 4.93174 22.8815 5.06257C23.347 5.32422 23.6911 5.83346 23.8747 6.67157C24.0582 7.50968 24.0519 8.64205 23.8352 9.95527C23.761 10.4049 23.6533 10.8814 23.5309 11.3697C22.1974 11.0572 20.7363 10.8254 19.179 10.6891C18.3972 9.63468 17.5939 8.67407 16.784 7.82192C17.2124 7.4148 17.638 7.03403 18.0534 6.70504C19.1132 5.86573 20.1166 5.29462 20.9539 5.03034C21.3725 4.8982 21.7388 4.84087 22.0577 4.84936ZM9.68698 4.85308C10.0078 4.84436 10.3748 4.90153 10.7947 5.03406C11.6344 5.29911 12.6395 5.86996 13.7002 6.71C14.1073 7.03239 14.5234 7.40591 14.9429 7.80333C14.127 8.66245 13.3171 9.63139 12.5301 10.6953C10.9794 10.8341 9.52419 11.0672 8.19729 11.3808C8.07582 10.8953 7.96808 10.4212 7.89426 9.97387C7.67739 8.6595 7.67197 7.52697 7.85607 6.68645C8.04016 5.84592 8.38704 5.33284 8.85683 5.06877C9.09173 4.93673 9.36619 4.86179 9.68698 4.85308ZM15.8736 8.73551C16.4047 9.29814 16.9358 9.91383 17.4626 10.5763C16.945 10.5553 16.4211 10.5428 15.8889 10.5428C15.3462 10.5428 14.8123 10.5557 14.2846 10.5776C14.8116 9.91456 15.3425 9.29856 15.8736 8.73551ZM15.8889 11.8246C16.7754 11.8246 17.6395 11.8601 18.48 11.92C19.0583 12.7287 19.6234 13.5866 20.1619 14.4947C20.6351 15.2926 21.0632 16.0892 21.453 16.876C21.0591 17.6731 20.6238 18.4806 20.1441 19.2895C19.7218 20.0015 19.2809 20.6778 18.8326 21.3299C17.8833 21.4071 16.8996 21.4501 15.8889 21.4501C14.8539 21.4501 13.8481 21.4046 12.8777 21.3237C12.437 20.681 12.0034 20.0149 11.5879 19.3143C11.1093 18.5072 10.6761 17.7013 10.2829 16.9057C10.6777 16.1057 11.1129 15.2953 11.5943 14.4835C12.13 13.5802 12.6935 12.7273 13.2686 11.9225C14.1181 11.8612 14.9922 11.8246 15.8889 11.8246ZM20.1581 12.0787C21.2327 12.2093 22.2417 12.3905 23.1807 12.608C22.9021 13.4973 22.5589 14.4262 22.1431 15.3847C21.873 14.878 21.5934 14.3695 21.2913 13.86C20.9251 13.2426 20.5437 12.6539 20.1581 12.0787ZM11.5497 12.0886C11.1722 12.6531 10.8008 13.2303 10.442 13.8352C10.136 14.3513 9.85054 14.8666 9.57748 15.3798C9.16522 14.427 8.82408 13.5034 8.54743 12.6192C9.47947 12.4013 10.4826 12.2207 11.5497 12.0886ZM24.4705 12.9452C24.9326 13.0813 25.379 13.2234 25.7883 13.3791C27.0336 13.8526 28.0185 14.4133 28.6569 14.9868C29.2953 15.5604 29.5724 16.1073 29.5724 16.638C29.5724 17.1686 29.2953 17.7156 28.6569 18.2891C28.0185 18.8627 27.0336 19.4234 25.7883 19.8969C25.3334 20.0699 24.8336 20.2267 24.3139 20.3754C23.9432 19.2591 23.4701 18.0946 22.907 16.9057C23.5544 15.5408 24.0775 14.21 24.4705 12.9452ZM7.28566 12.9514C7.67423 14.2036 8.19054 15.5212 8.82882 16.8722C8.26203 18.068 7.78654 19.2392 7.41425 20.3617C6.91292 20.217 6.43003 20.0644 5.9895 19.8969C4.74428 19.4234 3.75929 18.8627 3.1209 18.2891C2.48251 17.7156 2.20544 17.1686 2.20544 16.638C2.20544 16.1073 2.48251 15.5604 3.1209 14.9868C3.75929 14.4133 4.74428 13.8526 5.9895 13.3791C6.39258 13.2258 6.8314 13.0857 7.28566 12.9514ZM15.8889 13.7224C14.0965 13.7224 12.6294 15.1507 12.6294 16.8958C12.6294 18.6409 14.0965 20.0692 15.8889 20.0692C17.6814 20.0692 19.1484 18.6409 19.1484 16.8958C19.1484 15.1507 17.6814 13.7224 15.8889 13.7224ZM9.59276 18.397C9.86701 18.9127 10.1522 19.4302 10.4598 19.9489C10.7005 20.3548 10.9463 20.7498 11.1958 21.1377C10.3203 21.0195 9.48809 20.8699 8.70659 20.6927C8.95511 19.9516 9.25244 19.1824 9.59276 18.397ZM22.1596 18.397C22.5013 19.1843 22.7988 19.9547 23.0483 20.6977C22.2643 20.8746 21.4296 21.0238 20.5515 21.1414C20.8043 20.7488 21.0539 20.3488 21.2976 19.9378C21.603 19.4229 21.8871 18.9089 22.1596 18.397ZM8.33098 21.9249C9.5108 22.197 10.7896 22.406 12.1456 22.5422C13.0508 23.8168 13.9938 24.9622 14.9429 25.9635C14.5185 26.3663 14.0979 26.7444 13.6862 27.0704C12.6264 27.9098 11.6218 28.4796 10.7845 28.7439C9.94721 29.0082 9.32232 28.9733 8.85683 28.7117C8.39134 28.45 8.04854 27.9408 7.86498 27.1027C7.68142 26.2646 7.68649 25.1334 7.90318 23.8202C8.00148 23.2245 8.14839 22.5865 8.33098 21.9249ZM23.4252 21.9298C23.6093 22.5955 23.7567 23.2358 23.8556 23.8351C24.0724 25.1494 24.0778 26.282 23.8938 27.1225C23.7097 27.963 23.3653 28.4774 22.8955 28.7414C22.4257 29.0055 21.7948 29.0399 20.9551 28.7749C20.1154 28.5098 19.1103 27.939 18.0496 27.099C17.635 26.7706 17.2114 26.3894 16.784 25.9833C17.7394 24.9781 18.6891 23.8269 19.6004 22.5447C20.9598 22.4094 22.2422 22.2016 23.4252 21.9298ZM13.8466 22.6723C14.516 22.7079 15.1942 22.7318 15.8889 22.7318C16.5607 22.7318 17.2169 22.7093 17.865 22.6761C17.2025 23.5463 16.5271 24.3375 15.8545 25.0499C15.1823 24.3359 14.5083 23.5434 13.8466 22.6723Z" fill="#00D8FF"/>
</g>
</svg>
