<svg width="32" height="32" viewBox="0 0 32 32" fill="none" xmlns="http://www.w3.org/2000/svg">
<path d="M30.3 3.25H1.70005C0.925049 3.25 0.300049 3.875 0.300049 4.65V12.825C0.300049 13.6 0.925049 14.225 1.70005 14.225H30.3C31.075 14.225 31.7 13.6 31.7 12.825V4.65C31.7 3.875 31.075 3.25 30.3 3.25ZM5.15005 10.95C5.15005 11.325 4.85005 11.625 4.47505 11.625H2.95005C2.57505 11.625 2.27505 11.325 2.27505 10.95V6.525C2.27505 6.15 2.57505 5.85 2.95005 5.85H4.47505C4.85005 5.85 5.15005 6.15 5.15005 6.525V10.95ZM10 10.95C10 11.325 9.70005 11.625 9.32505 11.625H7.80005C7.42505 11.625 7.12505 11.325 7.12505 10.95V6.525C7.12505 6.15 7.42505 5.85 7.80005 5.85H9.32505C9.70005 5.85 10 6.15 10 6.525V10.95ZM29.125 10.175C28.75 10.55 28.25 10.775 27.675 10.775C26.55 10.775 25.625 9.85 25.625 8.725C25.625 7.6 26.55 6.675 27.675 6.675C28.8 6.675 29.725 7.6 29.725 8.725C29.725 9.3 29.5 9.8 29.125 10.175ZM30.3 17.775H1.70005C0.925049 17.775 0.300049 18.4 0.300049 19.175V27.35C0.300049 28.125 0.925049 28.75 1.70005 28.75H30.3C31.075 28.75 31.7 28.125 31.7 27.35V19.175C31.7 18.4 31.075 17.775 30.3 17.775ZM5.15005 25.475C5.15005 25.85 4.85005 26.15 4.47505 26.15H2.95005C2.57505 26.15 2.27505 25.85 2.27505 25.475V21.05C2.27505 20.675 2.57505 20.375 2.95005 20.375H4.47505C4.85005 20.375 5.15005 20.675 5.15005 21.05V25.475ZM10 25.475C10 25.85 9.70005 26.15 9.32505 26.15H7.80005C7.42505 26.15 7.12505 25.85 7.12505 25.475V21.05C7.12505 20.675 7.42505 20.375 7.80005 20.375H9.32505C9.70005 20.375 10 20.675 10 21.05V25.475ZM29.125 24.725C28.75 25.1 28.25 25.325 27.675 25.325C26.55 25.325 25.625 24.4 25.625 23.275C25.625 22.15 26.55 21.225 27.675 21.225C28.8 21.225 29.725 22.15 29.725 23.275C29.725 23.825 29.5 24.35 29.125 24.725Z" fill="#22FFCA"/>
</svg>
