<?xml version="1.0" standalone="no"?>
<!DOCTYPE svg PUBLIC "-//W3C//DTD SVG 20010904//EN"
 "http://www.w3.org/TR/2001/REC-SVG-20010904/DTD/svg10.dtd">
<svg version="1.0" xmlns="http://www.w3.org/2000/svg"
 width="512.000000pt" height="512.000000pt" viewBox="0 0 512.000000 512.000000"
 preserveAspectRatio="xMidYMid meet">

<g transform="translate(0.000000,512.000000) scale(0.100000,-0.100000)"
fill="#fff" stroke="none">
<path d="M377 5110 c-177 -30 -337 -194 -367 -376 -13 -77 -13 -781 0 -858 21
-130 118 -265 237 -329 111 -60 -5 -57 2313 -57 2318 0 2202 -3 2313 57 119
64 216 199 237 329 13 77 13 781 0 858 -30 187 -189 346 -376 376 -72 12
-4287 11 -4357 0z m501 -476 c49 -34 52 -55 52 -329 0 -276 -3 -295 -54 -329
-55 -36 -140 -9 -165 52 -8 20 -11 107 -9 296 l3 268 33 29 c37 34 102 40 140
13z m460 2 c54 -28 57 -46 57 -331 0 -284 -2 -297 -55 -328 -55 -33 -133 -13
-162 41 -10 19 -13 89 -13 291 0 237 2 269 17 291 35 49 102 64 156 36z m484
-15 l33 -29 3 -268 c2 -189 -1 -276 -9 -296 -36 -86 -161 -91 -205 -7 -21 42
-21 527 1 569 35 67 120 82 177 31z m1777 -111 c38 -19 65 -45 97 -95 15 -23
19 -48 19 -110 0 -70 -3 -85 -28 -122 -97 -151 -322 -140 -401 19 -82 164 48
352 228 332 27 -3 65 -13 85 -24z m655 16 c140 -42 205 -193 140 -324 -79
-159 -304 -170 -401 -19 -25 37 -28 52 -28 122 0 62 4 87 19 110 44 68 86 100
151 116 47 11 68 10 119 -5z"/>
<path d="M312 3346 c-143 -54 -237 -151 -289 -298 -16 -48 -18 -91 -18 -488 0
-397 2 -440 18 -488 53 -151 152 -250 302 -302 57 -20 82 -20 2235 -20 2153 0
2178 0 2235 20 150 52 249 151 302 302 16 48 18 91 18 488 0 397 -2 440 -18
488 -53 151 -152 250 -302 302 -57 20 -82 20 -2239 19 l-2181 0 -63 -23z m569
-459 c44 -27 49 -61 49 -325 0 -138 -4 -262 -9 -275 -34 -87 -157 -98 -204
-18 -15 25 -17 62 -17 291 0 228 2 266 17 291 32 54 108 71 164 36z m469 -6
c46 -33 51 -74 48 -341 -3 -276 -6 -288 -76 -317 -32 -13 -42 -14 -76 -2 -22
8 -49 27 -60 42 -20 27 -21 40 -21 296 0 242 2 270 18 295 36 55 112 68 167
27z m444 14 c63 -30 66 -44 66 -335 0 -229 -2 -266 -17 -291 -47 -80 -170 -69
-204 18 -5 13 -9 137 -9 275 0 299 4 313 90 341 26 9 41 7 74 -8z m1784 -121
c85 -35 142 -120 142 -214 0 -130 -101 -230 -232 -230 -126 1 -228 104 -228
230 0 87 57 176 134 211 50 23 134 24 184 3z m708 -3 c49 -22 111 -92 124
-140 23 -83 7 -158 -47 -221 -138 -161 -402 -64 -403 148 0 131 100 232 230
232 32 0 72 -8 96 -19z"/>
<path d="M363 1615 c-176 -38 -324 -194 -353 -371 -13 -77 -13 -781 0 -858 30
-187 189 -346 376 -376 80 -13 4268 -13 4348 0 187 30 346 189 376 376 13 77
13 781 0 858 -21 130 -118 265 -237 329 -111 60 6 57 -2318 56 -1755 0 -2141
-3 -2192 -14z m513 -471 c51 -34 54 -53 54 -329 0 -274 -3 -295 -52 -329 -38
-27 -103 -21 -140 13 l-33 29 -3 264 c-2 144 0 274 3 287 3 13 20 37 37 53 35
33 93 38 134 12z m464 -1 c53 -31 55 -44 55 -328 0 -285 -3 -303 -57 -331 -56
-29 -131 -10 -158 42 -21 38 -22 538 -2 576 29 54 107 74 162 41z m470 -3 c48
-34 51 -55 48 -344 l-3 -268 -33 -29 c-37 -34 -102 -40 -140 -13 -49 34 -52
55 -52 329 0 166 4 264 11 278 32 64 113 87 169 47z m1730 -101 c61 -14 114
-50 147 -102 25 -37 28 -52 28 -122 0 -83 -8 -105 -59 -163 -50 -57 -150 -83
-229 -58 -67 20 -111 57 -141 118 -65 131 3 287 144 324 56 16 56 16 110 3z
m706 -2 c144 -38 215 -192 148 -325 -30 -61 -74 -98 -141 -118 -79 -25 -179 1
-229 58 -51 58 -59 80 -59 163 0 70 3 85 27 121 33 52 78 84 137 100 59 16 58
16 117 1z"/>
</g>
</svg>
