<svg width="28" height="28" viewBox="0 0 28 28" fill="none"
    xmlns="http://www.w3.org/2000/svg">
    <path fill-rule="evenodd" clip-rule="evenodd" d="M9.70878 24.1772C9.70878 24.1974 9.70934 25.2756 9.71046 25.8486H18.2896C18.2904 25.2825 18.2907 24.1936 18.2907 24.1772C18.2907 17.6315 22.705 19.9654 22.705 13.4993C22.705 8.89357 18.8075 5.15991 13.9997 5.15991C9.19192 5.15991 5.2944 8.89357 5.2944 13.4993C5.2944 19.9655 9.70878 17.6316 9.70878 24.1772Z" fill="#72C894"/>
    <path d="M0.501587 12.6042C0.224581 12.6042 0 12.8193 0 13.0846C0 13.35 0.224582 13.5651 0.501587 13.5651H2.7391C3.01611 13.5651 3.24067 13.35 3.24067 13.0846C3.24067 12.8193 3.01611 12.6042 2.7391 12.6042H0.501587ZM2.73122 6.24826C2.4921 6.11559 2.18594 6.19373 2.04745 6.42281C1.90896 6.6519 1.99053 6.94519 2.22966 7.07785L4.16739 8.14957C4.40651 8.28224 4.71267 8.2041 4.85118 7.97502C4.98967 7.74595 4.9081 7.45267 4.66895 7.31997L2.73122 6.24826ZM7.97882 1.80935C7.84032 1.58026 7.53417 1.50212 7.29505 1.63478C7.05589 1.76748 6.97432 2.06076 7.11281 2.28983L8.23158 4.14609C8.37007 4.37517 8.67622 4.4533 8.91535 4.32064C9.15448 4.18797 9.23608 3.89469 9.09756 3.66562L7.97882 1.80935ZM14.8421 0.480475C14.8421 0.21514 14.6175 0 14.3405 0C14.0636 0 13.839 0.21514 13.839 0.480475V2.62393C13.839 2.88926 14.0636 3.1044 14.3405 3.1044C14.6175 3.1044 14.8421 2.88926 14.8421 2.62393V0.480475ZM21.4769 2.6164C21.6154 2.38733 21.5338 2.09405 21.2947 1.96135C21.0556 1.82868 20.7494 1.90683 20.611 2.13592L19.4922 3.99216C19.3537 4.22123 19.4353 4.51451 19.6744 4.64718C19.9135 4.77985 20.2197 4.70171 20.3582 4.47263L21.4769 2.6164ZM26.1106 7.64331C26.3497 7.51062 26.4313 7.21734 26.2928 6.98827C26.1543 6.75919 25.8481 6.68105 25.609 6.81372L23.6712 7.88545C23.4321 8.01812 23.3505 8.3114 23.489 8.5405C23.6275 8.76958 23.9337 8.84772 24.1728 8.71505L26.1106 7.64331ZM27.4978 14.2181C27.7748 14.2181 27.9994 14.0029 27.9994 13.7376C27.9994 13.4722 27.7748 13.2571 27.4978 13.2571H25.2603C24.9833 13.2571 24.7587 13.4722 24.7587 13.7376C24.7587 14.0029 24.9833 14.2181 25.2603 14.2181H27.4978Z" fill="#72C894"/>
    <path fill-rule="evenodd" clip-rule="evenodd" d="M16.1925 26.4641H11.7082C11.8613 27.3319 12.8067 28 13.9504 28C15.094 28 16.0394 27.3319 16.1925 26.4641H16.1925Z" fill="#72C894"/>
</svg>
