<svg width="20" height="20" viewBox="0 0 20 20" fill="none" xmlns="http://www.w3.org/2000/svg">
<mask id="mask0_2_544" style="mask-type:alpha" maskUnits="userSpaceOnUse" x="0" y="0" width="20" height="20">
<rect width="20" height="20" fill="#C4C4C4"/>
</mask>
<g mask="url(#mask0_2_544)">
<path d="M15.188 7.62592C14.6702 7.62592 14.2505 8.04565 14.2505 8.56346V12.3136C14.2505 12.8314 14.6702 13.2512 15.188 13.2512C15.7058 13.2512 16.1256 12.8314 16.1256 12.3136V8.56346C16.1256 8.04565 15.7058 7.62592 15.188 7.62592Z" fill="#000"/>
<path d="M3.93754 7.62592C3.41973 7.62592 3 8.04565 3 8.56346V12.3136C3 12.8314 3.41973 13.2512 3.93754 13.2512C4.45535 13.2512 4.87508 12.8314 4.87508 12.3136V8.56346C4.87508 8.04565 4.45535 7.62592 3.93754 7.62592Z" fill="#000"/>
<path d="M12.0122 3.85812L12.7648 2.72883C12.9085 2.51321 12.8499 2.22252 12.6348 2.07877C12.4178 1.93503 12.128 1.99363 11.9847 2.20878L11.2335 3.33602C10.7372 3.08904 10.1851 2.93757 9.59099 2.93757C8.98145 2.93757 8.41386 3.09757 7.90451 3.35662L7.13956 2.20879C6.99535 1.99363 6.70558 1.93503 6.4895 2.07878C6.27435 2.22252 6.21575 2.51321 6.35949 2.72883L7.12805 3.88198C6.34559 4.56935 5.84082 5.56463 5.84082 6.68362V6.68774H13.3123C13.3123 5.55284 12.8035 4.5464 12.0122 3.85812L12.0122 3.85812ZM8.15584 5.7502C7.89696 5.7502 7.68707 5.54031 7.68707 5.28143C7.68707 5.0225 7.89696 4.81266 8.15584 4.81266C8.41471 4.81266 8.62461 5.0225 8.62461 5.28143C8.62461 5.54031 8.41471 5.7502 8.15584 5.7502ZM10.9685 5.7502C10.7096 5.7502 10.4997 5.54031 10.4997 5.28143C10.4997 5.0225 10.7096 4.81266 10.9685 4.81266C11.2273 4.81266 11.4372 5.0225 11.4372 5.28143C11.4372 5.54031 11.2273 5.7502 10.9685 5.7502Z" fill="#000"/>
<path d="M5.81251 13.247C5.81159 13.4965 5.90956 13.7359 6.0858 13.9127C6.26159 14.0894 6.50056 14.1887 6.75005 14.1887V16.0638C6.75005 16.5815 7.16978 17.0013 7.68759 17.0013C8.2054 17.0013 8.62513 16.5815 8.62513 16.0638V14.1887H10.5002V16.0638C10.5002 16.5815 10.9199 17.0013 11.4378 17.0013C11.9556 17.0013 12.3753 16.5815 12.3753 16.0638V14.1887C12.8917 14.1887 13.3105 13.7717 13.3128 13.2553V7.62592H5.83723L5.81251 13.247L5.81251 13.247Z" fill="#000"/>
</g>
</svg>
