<svg width="24" height="24" viewBox="0 0 20 20" fill="none" xmlns="http://www.w3.org/2000/svg">
<mask id="mask0_2_556" style="mask-type:alpha" maskUnits="userSpaceOnUse" x="0" y="0" width="20" height="20">
<rect width="20" height="20" fill="#C4C4C4"/>
</mask>
<g mask="url(#mask0_2_556)">
<path d="M12.2116 18C11.7084 18 11.2601 17.8329 10.8282 17.674C10.4582 17.5359 10.1094 17.4065 9.77853 17.4065C9.4847 17.4065 9.14968 17.5298 8.79474 17.6591C8.36566 17.8147 7.8796 17.9933 7.35166 17.9933C6.48389 17.9933 5.70605 17.5055 4.97009 16.5051C4.9392 16.4627 1.94319 12.1452 3.39863 8.93926C4.19569 7.1837 5.34425 6.29245 6.81205 6.29245C7.58645 6.29245 8.30113 6.53092 8.87506 6.72292C9.19636 6.83003 9.4998 6.93108 9.65977 6.93108C9.84856 6.93108 10.152 6.82262 10.4712 6.70608C11.004 6.51408 11.6685 6.27359 12.4306 6.27359C13.5352 6.27359 14.5348 6.77412 15.4877 7.80347C15.5199 7.83863 15.5442 7.87995 15.5592 7.92483C15.5742 7.96971 15.5796 8.01716 15.5749 8.06418C15.5696 8.11109 15.5545 8.15643 15.5305 8.19735C15.5065 8.23827 15.4742 8.27389 15.4355 8.30198C14.4311 9.0201 13.9217 9.85073 13.9217 10.7716C13.9217 11.9121 14.4957 12.7502 15.8378 13.57C15.9085 13.6127 15.9608 13.6793 15.9851 13.7571C16.0094 13.835 16.0039 13.9189 15.9696 13.9931C14.7078 16.7632 13.549 18 12.2116 18ZM9.69203 6.09978C9.60965 6.09978 9.52658 6.09439 9.44488 6.08496C9.36389 6.0755 9.28904 6.03789 9.23388 5.97895C9.17871 5.92 9.14689 5.84361 9.14418 5.76362C9.05356 3.50956 11.0006 2.12922 12.4395 2.00123C12.525 1.99408 12.6102 2.0183 12.6785 2.06919C12.7469 2.12008 12.7936 2.19404 12.8096 2.27676C12.9681 3.14443 12.6716 4.09833 11.994 4.89325C11.35 5.6491 10.4891 6.09978 9.69203 6.09978Z" fill="#000"/>
</g>
</svg>
