<svg width="20" height="20" viewBox="0 0 20 20" fill="none" xmlns="http://www.w3.org/2000/svg">
<mask id="mask0_2_539" style="mask-type:alpha" maskUnits="userSpaceOnUse" x="0" y="0" width="20" height="20">
<rect width="20" height="20" fill="#C4C4C4"/>
</mask>
<g mask="url(#mask0_2_539)">
<path d="M9.00004 5.94807H6.66237V12.1574C6.66237 13.6939 6.13546 14.1229 5.21852 14.1229C4.78882 14.1229 4.40185 14.0492 4.10082 13.9457L3.85718 15.7634C4.28672 15.9113 4.94592 16 5.4616 16C7.5669 16 9.00004 15.0103 9.00004 12.1727V5.94807ZM14.098 5.71428C11.835 5.71428 10.4026 6.99994 10.4026 8.6993C10.4026 10.1628 11.5057 11.079 13.1097 11.67C14.2697 12.0837 14.7283 12.4534 14.7283 13.0592C14.7283 13.7241 14.1982 14.1527 13.1957 14.1527C12.2646 14.1527 11.4194 13.8418 10.8465 13.5317V13.531L10.4026 15.3784C10.9473 15.6892 11.9642 15.9995 13.0666 15.9995C15.7165 15.9994 16.9481 14.5807 16.9481 12.9109C16.9481 11.4922 16.1604 10.5761 14.4562 9.92561C13.1956 9.42327 12.6658 9.14264 12.6658 8.50717C12.6658 8.00457 13.1243 7.54671 14.0697 7.54671C15.0003 7.54671 15.6401 7.85958 16.013 8.05197L16.5719 6.18184C15.9875 5.92525 15.2003 5.71428 14.098 5.71428Z" fill="#000"/>
</g>
</svg>
