<svg width="20" height="20" viewBox="0 0 20 20" fill="none" xmlns="http://www.w3.org/2000/svg">
<mask id="mask0_2_443" style="mask-type:alpha" maskUnits="userSpaceOnUse" x="0" y="0" width="20" height="20">
<rect width="20" height="20" fill="#C4C4C4"/>
</mask>
<g mask="url(#mask0_2_443)">
<path fill-rule="evenodd" clip-rule="evenodd" d="M13.322 3.00107C13.0509 2.99233 12.7671 3.03762 12.4826 3.12602C11.9137 3.3028 11.3174 3.64732 10.7055 4.12433C10.4657 4.31127 10.2238 4.52496 9.98099 4.75169C9.74355 4.53072 9.50655 4.32276 9.27205 4.13995C8.66066 3.66332 8.06604 3.31867 7.49834 3.14229C6.93065 2.9659 6.36579 2.96043 5.90188 3.21713C5.43796 3.47382 5.16053 3.94503 5.03607 4.50439C4.91162 5.06376 4.92533 5.72988 5.05034 6.47564C5.09376 6.73467 5.15568 7.00642 5.22621 7.28327C4.96113 7.36026 4.7037 7.44121 4.46499 7.53057C3.74456 7.80023 3.14846 8.12285 2.71437 8.50675C2.28029 8.89066 2 9.35659 2 9.86821C2 10.3798 2.28029 10.8451 2.71437 11.229C3.14846 11.6129 3.74456 11.9362 4.46499 12.2058C4.72024 12.3014 4.9966 12.3874 5.28189 12.4688C5.17928 12.8362 5.09613 13.1928 5.03947 13.5309C4.91436 14.2772 4.90115 14.9434 5.02589 15.5041C5.15063 16.0647 5.42819 16.5386 5.89441 16.7965C6.36062 17.0545 6.928 17.0482 7.49699 16.8714C8.06597 16.6946 8.66152 16.3507 9.27341 15.8737C9.51099 15.6885 9.75133 15.4772 9.99185 15.2528C10.2336 15.4785 10.4749 15.6908 10.7137 15.877C11.3251 16.3536 11.9204 16.6976 12.4881 16.874C13.0558 17.0504 13.6206 17.0558 14.0845 16.7991C14.5485 16.5424 14.8252 16.0712 14.9497 15.5119C15.0741 14.9525 15.0604 14.287 14.9354 13.5413C14.8786 13.2023 14.7954 12.8446 14.6923 12.4759C14.987 12.3926 15.2721 12.3043 15.535 12.2058C16.2554 11.9362 16.8515 11.6129 17.2856 11.229C17.7197 10.8451 18 10.3798 18 9.86821C18 9.35659 17.7197 8.89066 17.2856 8.50675C16.8515 8.12285 16.2554 7.80023 15.535 7.53057C15.2929 7.43993 15.0315 7.35792 14.7622 7.28001C14.8333 7.00147 14.8965 6.72777 14.9402 6.46718C15.0653 5.72083 15.0785 5.05396 14.9537 4.49333C14.829 3.9327 14.5508 3.45947 14.0845 3.20151C13.8514 3.07253 13.593 3.0098 13.322 3.00107ZM13.29 3.67919C13.4601 3.68365 13.6053 3.72244 13.7294 3.79112C13.9777 3.92849 14.1612 4.19584 14.2591 4.63585C14.357 5.07586 14.3536 5.67035 14.238 6.3598C14.1984 6.59585 14.141 6.84602 14.0757 7.10235C13.3645 6.93832 12.5852 6.8166 11.7547 6.74506C11.3377 6.19149 10.9093 5.68716 10.4774 5.23978C10.7059 5.02605 10.9328 4.82614 11.1544 4.65342C11.7196 4.21278 12.2547 3.91295 12.7013 3.7742C12.9246 3.70483 13.1199 3.67473 13.29 3.67919ZM6.6923 3.68114C6.86339 3.67656 7.05916 3.70658 7.28308 3.77616C7.73093 3.91531 8.26698 4.215 8.8327 4.65603C9.04981 4.82528 9.27172 5.02138 9.49546 5.23002C9.06032 5.68106 8.62836 6.18976 8.20864 6.74832C7.38159 6.82116 6.60548 6.94354 5.8978 7.1082C5.83301 6.8533 5.77555 6.60441 5.73619 6.36956C5.62052 5.67952 5.61763 5.08494 5.71581 4.64366C5.814 4.20238 5.999 3.93301 6.24955 3.79438C6.37483 3.72506 6.52121 3.68572 6.6923 3.68114ZM9.99185 5.71942C10.2751 6.0148 10.5584 6.33804 10.8393 6.68584C10.5633 6.67481 10.2838 6.66827 10 6.66827C9.71054 6.66827 9.42578 6.67502 9.14438 6.68649C9.42541 6.33842 9.70856 6.01502 9.99185 5.71942ZM10 7.34119C10.4728 7.34119 10.9336 7.35981 11.3819 7.3913C11.6903 7.81585 11.9917 8.26626 12.2789 8.74299C12.5313 9.16188 12.7596 9.58012 12.9675 9.99316C12.7574 10.4117 12.5253 10.8356 12.2694 11.2602C12.0442 11.6341 11.809 11.9891 11.57 12.3314C11.0637 12.372 10.539 12.3946 10 12.3946C9.44802 12.3946 8.91158 12.3707 8.39402 12.3282C8.15895 11.9908 7.92774 11.6411 7.70614 11.2733C7.45089 10.8496 7.21982 10.4264 7.0101 10.0088C7.2207 9.58876 7.4528 9.16329 7.70953 8.73713C7.99522 8.2629 8.29575 7.8151 8.6025 7.3926C9.05557 7.3604 9.52175 7.34119 10 7.34119ZM12.2769 7.4746C12.85 7.54313 13.3882 7.63829 13.889 7.75249C13.7404 8.21936 13.5573 8.70701 13.3355 9.21026C13.1915 8.94422 13.0424 8.67728 12.8812 8.40979C12.686 8.08562 12.4826 7.77657 12.2769 7.4746ZM7.68576 7.47981C7.48443 7.77613 7.28631 8.07917 7.09498 8.39677C6.93177 8.6677 6.77953 8.93823 6.6339 9.20765C6.41403 8.70743 6.23209 8.22255 6.08454 7.75834C6.58163 7.64394 7.11662 7.54912 7.68576 7.47981ZM14.5769 7.9295C14.8233 8.00097 15.0614 8.07555 15.2797 8.15728C15.9438 8.40587 16.4691 8.70024 16.8096 9.00135C17.1501 9.30247 17.2979 9.58963 17.2979 9.86821C17.2979 10.1468 17.1501 10.4339 16.8096 10.7351C16.4691 11.0362 15.9438 11.3305 15.2797 11.5791C15.0371 11.67 14.7705 11.7523 14.4933 11.8303C14.2956 11.2443 14.0433 10.6329 13.743 10.0088C14.0883 9.29221 14.3672 8.59355 14.5769 7.9295ZM5.41159 7.93276C5.61884 8.59017 5.8942 9.28189 6.23461 9.99121C5.93233 10.619 5.67873 11.2338 5.48018 11.8232C5.2128 11.7472 4.95526 11.6671 4.72031 11.5791C4.05619 11.3305 3.53087 11.0362 3.19039 10.7351C2.84991 10.4339 2.70215 10.1468 2.70215 9.86821C2.70215 9.58963 2.84991 9.30247 3.19039 9.00135C3.53087 8.70024 4.05619 8.40587 4.72031 8.15728C4.93529 8.07681 5.16933 8.00329 5.41159 7.93276ZM10 8.33755C9.04403 8.33755 8.26161 9.0874 8.26161 10.0036C8.26161 10.9197 9.04403 11.6696 10 11.6696C10.956 11.6696 11.7384 10.9197 11.7384 10.0036C11.7384 9.0874 10.956 8.33755 10 8.33755ZM6.64205 10.7917C6.78832 11.0624 6.94044 11.3342 7.10449 11.6065C7.23284 11.8195 7.36393 12.0269 7.49699 12.2306C7.03007 12.1685 6.58623 12.09 6.16943 11.9969C6.30197 11.6079 6.46054 11.204 6.64205 10.7917ZM13.3444 10.7917C13.5266 11.205 13.6853 11.6095 13.8184 11.9995C13.4002 12.0925 12.955 12.1708 12.4867 12.2325C12.6215 12.0264 12.7547 11.8164 12.8846 11.6006C13.0475 11.3303 13.199 11.0605 13.3444 10.7917ZM5.9691 12.6438C6.59834 12.7867 7.28036 12.8964 8.00356 12.9679C8.48634 13.6371 8.98929 14.2384 9.49546 14.7641C9.26911 14.9756 9.04478 15.1741 8.82523 15.3453C8.26 15.7859 7.72421 16.0851 7.27765 16.2238C6.83109 16.3626 6.49782 16.3443 6.24955 16.2069C6.00129 16.0695 5.81847 15.8022 5.72057 15.3622C5.62267 14.9222 5.62537 14.3283 5.74094 13.6389C5.79337 13.3261 5.87172 12.9912 5.9691 12.6438ZM14.0194 12.6464C14.1176 12.9959 14.1961 13.3321 14.2489 13.6467C14.3645 14.3367 14.3674 14.9313 14.2692 15.3726C14.1711 15.8139 13.9874 16.0839 13.7369 16.2225C13.4863 16.3612 13.1498 16.3792 12.702 16.2401C12.2541 16.1009 11.7181 15.8013 11.1524 15.3602C10.9312 15.1878 10.7053 14.9877 10.4774 14.7745C10.9869 14.2468 11.4934 13.6424 11.9795 12.9692C12.7045 12.8982 13.3884 12.7891 14.0194 12.6464ZM8.91079 13.0363C9.26777 13.0549 9.62946 13.0675 10 13.0675C10.3583 13.0675 10.7082 13.0557 11.0539 13.0382C10.7006 13.4951 10.3404 13.9104 9.98167 14.2845C9.62316 13.9096 9.26367 13.4935 8.91079 13.0363Z" fill="#000"/>
</g>
</svg>
