<svg id="prefix__Layer_1" xmlns="http://www.w3.org/2000/svg" width="22" height="22" viewBox="0 0 22 22" xml:space="preserve" fill="#ef4444"><style>.prefix__st0{fill:#ec4889}</style><path d="M12 21H4c-1.7 0-3-1.3-3-3v-8c0-1.7 1.3-3 3-3h8c1.7 0 3 1.3 3 3v.4l3.1-1.6c1-.5 2.2-.1 2.7.9.1.3.2.6.2.9v6.8c0 1.1-.9 2-2 2-.3 0-.6-.1-.9-.2L15 17.6v.4c0 1.7-1.3 3-3 3zM4 9c-.6 0-1 .4-1 1v8c0 .6.4 1 1 1h8c.6 0 1-.4 1-1v-8c0-.6-.4-1-1-1H4zm11 6.4l4 2v-6.8l-4 2v2.8z" id="prefix__Path_2"></path><path d="M7.9 5.6c-.6 0-1-.4-1-1V1.8c0-.6.4-1 1-1s1 .4 1 1v2.8c0 .6-.5 1-1 1z" id="prefix__Path_3"></path><path d="M11.2 5.6c-.3 0-.5-.1-.7-.3-.4-.4-.4-1 0-1.4l2-2c.4-.4 1-.4 1.4 0s.4 1 0 1.4l-2 2c-.2.2-.4.3-.7.3z" id="prefix__Path_4"></path><path d="M4.4 5.6c-.3 0-.5-.1-.7-.3l-2-2c-.3-.3-.3-1 0-1.3.4-.4 1-.4 1.4 0l2 2c.4.4.4 1 0 1.4-.2.1-.4.2-.7.2z" id="prefix__Path_4_1_"></path></svg>