<svg xmlns="http://www.w3.org/2000/svg" width="19.355" height="12.46" viewBox="0 0 19.355 12.46"><defs><style>.a{fill:#ef4444}</style></defs><path class="a" d="M1034.047 93.21a1.052 1.052 0 001.521 0l3.261-3.261a1.05 1.05 0 000-1.521l-3.26-3.26a1.076 1.076 0 10-1.521 1.521l2.5 2.5-2.5 2.5a1.052 1.052 0 00-.001 1.521zM1024.906 85.168a1.05 1.05 0 00-1.521 0l-3.259 3.259a1.05 1.05 0 000 1.521l3.259 3.261a1.052 1.052 0 001.521 0 1.052 1.052 0 000-1.522l-2.5-2.5 2.5-2.5a1.05 1.05 0 000-1.519zM1031.775 82.855a1.027 1.027 0 00-1.4.639l-1.083 2.915v.005l-1.235 3.261v.007l-1.519 4.072a1.087 1.087 0 102.036.759l1.085-2.915v-.007l1.234-3.259v-.007l1.521-4.073a1.026 1.026 0 00-.639-1.397z" transform="translate(-1019.8 -82.773)"></path></svg>