<svg id="prefix__Layer_1" xmlns="http://www.w3.org/2000/svg" width="22" height="22" viewBox="0 0 22 22" xml:space="preserve" fill="#6A65F1"><style>.prefix__st0{fill:#6A65F1}</style><g id="prefix__Web_1366_1"><path d="M9.8 15.5c-1.2 0-2.1-.9-2.1-2.1V8.6c0-.4.1-.8.4-1.2.3-.4.7-.7 1.3-.8.6-.1 1.1 0 1.6.3l3.5 2.4.6.6c.3.5.4 1 .3 1.6-.1.6-.4 1-.9 1.3L11 15.1c-.4.3-.8.4-1.2.4zm0-7h-.1v4.8c0 .1.1.1.1.1l3.6-2.4s.1-.1 0-.2L9.8 8.5c.1 0 0 0 0 0z" id="prefix__Path_1"></path></g><path d="M16.9 20.6H5.1c-2.3 0-4.1-1.8-4.1-4.1v-11c0-2.3 1.8-4.1 4.1-4.1h11.8c2.3 0 4.1 1.8 4.1 4.1v11c0 2.3-1.8 4.1-4.1 4.1zM5.1 3.4C3.9 3.4 3 4.3 3 5.5v11c0 1.2.9 2.1 2.1 2.1h11.8c1.2 0 2.1-.9 2.1-2.1v-11c0-1.2-.9-2.1-2.1-2.1H5.1z"></path></svg>